<?xml version="1.0" encoding="UTF-8"?>
<svg width="44px" height="44px" viewBox="0 0 44 44" version="1.1" xmlns="http://www.w3.org/2000/svg" xmlns:xlink="http://www.w3.org/1999/xlink">
    <!-- Generator: Sketch 48.2 (47327) - http://www.bohemiancoding.com/sketch -->
    <title>ic_firestrong_dark</title>
    <desc>Created with Sketch.</desc>
    <defs></defs>
    <g id="Symbols" stroke="none" stroke-width="1" fill="none" fill-rule="evenodd">
        <g id="ic_firestrong_dark" stroke="#3C3C3C">
            <g>
                <path d="M21.7956976,37 C29.1928419,37 35.5934613,33.3332872 33.6468879,25.3953188 C32.3491723,20.1033399 28.3987755,14.3049003 21.7956976,8 C14.8610831,14.2142486 10.9864239,20.0126882 10.1717201,25.3953188 C8.94966442,33.4692648 14.3985532,37 21.7956976,37 Z" id="Oval-2" stroke-width="2"></path>
                <path d="M21.914874,37 C24.9970175,37 27.6639422,35.2298628 26.85287,31.3977401 C26.3121551,28.8429917 24.6661565,26.043745 21.914874,23 C19.0254513,25.9999821 17.41101,28.7992288 17.07155,31.3977401 C16.5623602,35.2955071 18.8327305,37 21.914874,37 Z" id="Oval-2" stroke-width="2"></path>
                <path d="M21.8637984,37 C26.7952279,37 31.0623076,34.2183558 29.7645919,28.1964487 C28.8994482,24.181844 26.2658503,19.7830278 21.8637984,15 C17.240722,19.7142575 14.6576159,24.1130738 14.1144801,28.1964487 C13.2997763,34.3215112 16.9323688,37 21.8637984,37 Z" id="Oval-2" stroke-width="2"></path>
                <path d="M32.5,15.5 L32.5,13.5" id="Line-4" stroke-linecap="round"></path>
                <path d="M26.5,7.5 L26.5,5.5" id="Line-4" stroke-linecap="round"></path>
                <path d="M14.5,11.5 L14.5,9.5" id="Line-4" stroke-linecap="round"></path>
                <path d="M9.5,18.5 L9.5,16.5" id="Line-4" stroke-linecap="round"></path>
            </g>
        </g>
    </g>
</svg>