<?xml version="1.0" encoding="UTF-8"?>
<svg width="56px" height="56px" viewBox="0 0 56 56" version="1.1" xmlns="http://www.w3.org/2000/svg" xmlns:xlink="http://www.w3.org/1999/xlink">
    <!-- Generator: Sketch 48.2 (47327) - http://www.bohemiancoding.com/sketch -->
    <title>ic_premium_56</title>
    <desc>Created with Sketch.</desc>
    <defs></defs>
    <g id="Symbols" stroke="none" stroke-width="1" fill="none" fill-rule="evenodd">
        <g id="ic_premium_56">
            <rect id="Rectangle" x="0" y="0" width="56" height="56"></rect>
            <rect id="Rectangle-3" fill-opacity="0.4" fill="#D445FF" x="11" y="43" width="34" height="5" rx="2.5"></rect>
            <ellipse id="Oval" fill-opacity="0.4" fill="#D445FF" cx="11" cy="20.59375" rx="3" ry="4.5"></ellipse>
            <ellipse id="Oval" fill-opacity="0.4" fill="#D445FF" cx="45" cy="20.5" rx="3" ry="4.5"></ellipse>
            <ellipse id="Oval" fill="#D445FF" cx="28" cy="13" rx="4" ry="5"></ellipse>
            <path d="M16.7026059,41 C15.733842,41 14.8651149,40.4034095 14.5172776,39.4992453 L11.0806305,30.5660659 C11.0098344,30.3820393 10.9866656,30.1831124 11.0132739,29.9877412 C11.1005253,29.3470971 11.6906012,28.8984836 12.3312453,28.985735 L12.3312499,28.9857011 C16.2850823,29.5241862 19.0372366,29.4224442 20.587713,28.6804751 C22.1999684,27.908942 24.3554855,25.5203344 27.0542642,21.5146524 C27.1341075,21.3961444 27.2349713,21.2932542 27.3518679,21.2110698 C27.8808177,20.8391908 28.6110838,20.9665218 28.9829628,21.4954716 L28.9829402,21.4954875 C31.8232466,25.5354556 33.9969097,27.9304514 35.5039294,28.6804751 C36.9627951,29.4065331 39.6850646,29.5005741 43.6707381,28.962598 C43.8461901,28.938916 44.0247284,28.9553354 44.1929181,29.0106209 C44.8071524,29.2125253 45.1414119,29.8741364 44.9395075,30.4883707 L42.0135767,39.3897083 C41.6977362,40.3505598 40.800633,41 39.7892029,41 L16.7026059,41 Z M28,35.9989802 C29.656291,35.9989802 30.9989802,34.656291 30.9989802,33 C30.9989802,31.343709 29.656291,30.0010198 28,30.0010198 C26.343709,30.0010198 25.0010198,31.343709 25.0010198,33 C25.0010198,34.656291 26.343709,35.9989802 28,35.9989802 Z" id="Combined-Shape" fill="#D445FF"></path>
        </g>
    </g>
</svg>