<?xml version="1.0" encoding="UTF-8"?>
<svg width="36px" height="36px" viewBox="0 0 36 36" version="1.1" xmlns="http://www.w3.org/2000/svg" xmlns:xlink="http://www.w3.org/1999/xlink">
    <!-- Generator: Sketch 48.2 (47327) - http://www.bohemiancoding.com/sketch -->
    <title>ic_pro_music</title>
    <desc>Created with Sketch.</desc>
    <defs></defs>
    <g id="Symbols" stroke="none" stroke-width="1" fill="none" fill-rule="evenodd">
        <g id="ic_pro_music">
            <rect id="Rectangle" x="0" y="0" width="36" height="36"></rect>
            <path d="M29.6238075,25 C30.5043123,23.0449082 31,20.8370204 31,18.5 C31,10.4918711 25.1797017,4 18,4 C10.8202983,4 5,10.4918711 5,18.5 C5,20.8370204 5.49568769,23.0449082 6.3761925,25 L4.86976125,25 C3.67833088,22.7775398 3,20.2206268 3,17.5 C3,8.93958638 9.71572875,2 18,2 C26.2842712,2 33,8.93958638 33,17.5 C33,20.2206268 32.3216691,22.7775398 31.1302387,25 L29.6238075,25 Z" id="Combined-Shape" fill="#FFFFFF"></path>
            <path d="M22.885662,5.96129044 C21.3734085,5.35596377 19.72273,5 17.9942777,5 C16.2225765,5 14.5325898,5.32688663 12.9896367,5.96129044" id="Oval-3" stroke="#4588FF" stroke-width="2" stroke-linecap="round"></path>
            <path d="M5.47031839,31.6133681 C3.43731768,30.8057054 2,28.8207045 2,26.5 C2,24.1792955 3.43731768,22.1942946 5.47031839,21.3866319 C6.00321104,20.552819 6.93704662,20 8,20 C9.65685425,20 11,21.3431458 11,23 L11,30 C11,31.6568542 9.65685425,33 8,33 C6.93704662,33 6.00321104,32.447181 5.47031839,31.6133681 Z M8,22 C7.44771525,22 7,22.4477153 7,23 L7,30 C7,30.5522847 7.44771525,31 8,31 C8.55228475,31 9,30.5522847 9,30 L9,23 C9,22.4477153 8.55228475,22 8,22 Z" id="Combined-Shape" fill="#FFFFFF" transform="translate(6.500000, 26.500000) rotate(-14.000000) translate(-6.500000, -26.500000) "></path>
            <path d="M28.4703184,31.6133681 C26.4373177,30.8057054 25,28.8207045 25,26.5 C25,24.1792955 26.4373177,22.1942946 28.4703184,21.3866319 C29.003211,20.552819 29.9370466,20 31,20 C32.6568542,20 34,21.3431458 34,23 L34,30 C34,31.6568542 32.6568542,33 31,33 C29.9370466,33 29.003211,32.447181 28.4703184,31.6133681 Z M31,22 C30.4477153,22 30,22.4477153 30,23 L30,30 C30,30.5522847 30.4477153,31 31,31 C31.5522847,31 32,30.5522847 32,30 L32,23 C32,22.4477153 31.5522847,22 31,22 Z" id="Combined-Shape" fill="#FFFFFF" transform="translate(29.500000, 26.500000) scale(-1, 1) rotate(-14.000000) translate(-29.500000, -26.500000) "></path>
            <path d="M14.1353895,28.8839564 C15.2725112,27.9674392 16,26.563152 16,24.9889507 C16,22.3401242 13.940258,20.1723761 11.3350674,20" id="Oval-7" stroke-opacity="0.6" stroke="#D445FF" stroke-linecap="round"></path>
            <path d="M13.4317408,26.5677609 C13.789253,26.0738865 14,25.4668075 14,24.8105059 C14,23.5236643 13.1897768,22.4260605 12.0516359,22" id="Oval-7" stroke-opacity="0.6" stroke="#D445FF" stroke-linecap="round"></path>
            <path d="M23.1353895,28.8839564 C24.2725112,27.9674392 25,26.563152 25,24.9889507 C25,22.3401242 22.940258,20.1723761 20.3350674,20" id="Oval-7" stroke-opacity="0.6" stroke="#D445FF" stroke-linecap="round" transform="translate(22.500000, 24.994475) scale(-1, 1) translate(-22.500000, -24.994475) "></path>
            <path d="M24.4317408,26.5677609 C24.789253,26.0738865 25,25.4668075 25,24.8105059 C25,23.5236643 24.1897768,22.4260605 23.0516359,22" id="Oval-7" stroke-opacity="0.6" stroke="#D445FF" stroke-linecap="round" transform="translate(23.500000, 24.905253) scale(-1, 1) translate(-23.500000, -24.905253) "></path>
        </g>
    </g>
</svg>