<?xml version="1.0" encoding="UTF-8"?>
<svg width="24px" height="24px" viewBox="0 0 24 24" version="1.1" xmlns="http://www.w3.org/2000/svg" xmlns:xlink="http://www.w3.org/1999/xlink">
    <!-- Generator: Sketch 48.2 (47327) - http://www.bohemiancoding.com/sketch -->
    <title>ic_volume_high_dark_24</title>
    <desc>Created with Sketch.</desc>
    <defs></defs>
    <g id="Symbols" stroke="none" stroke-width="1" fill="none" fill-rule="evenodd">
        <g id="ic_volume_high_dark_24">
            <g id="ic_volume_high_light_24">
                <rect id="Rectangle-20" x="0" y="0" width="24" height="24"></rect>
                <g id="Group-2" transform="translate(12.000000, 4.000000)" stroke="#3C3C3C" stroke-linecap="round" stroke-width="2">
                    <path d="M7.77817459,15.7781746 C9.76878306,13.7875661 11,11.0375661 11,8 C11,4.96243388 9.76878306,2.21243388 7.77817459,0.221825407" id="Oval"></path>
                    <path d="M4.94974747,12.9497475 C6.21649831,11.6829966 7,9.93299662 7,8 C7,6.06700338 6.21649831,4.31700338 4.94974747,3.05025253" id="Oval"></path>
                </g>
                <path d="M5.4643389,9.00301843 L7.52550326,5.99597498 C8.46225145,4.62934817 10.3295058,4.28086269 11.6961326,5.21761087 C12.5121984,5.77697948 13,6.70273579 13,7.69210761 L13,16.4757217 C13,18.132576 11.6568542,19.4757217 10,19.4757217 C8.98765601,19.4757217 8.04358862,18.9651584 7.48941627,18.117967 L5.43841358,14.9824949 L3.99253996,14.9824949 C2.33980578,14.9824949 1,13.6426891 1,11.9899549 C1,10.3389997 2.33836368,9.00063598 3.98931895,9.00063598 C3.99173708,9.00063664 3.99173708,9.00063664 3.9941552,9.0006399 L5.4643389,9.00301843 Z" id="Combined-Shape" stroke="#3C3C3C" stroke-width="2"></path>
            </g>
        </g>
    </g>
</svg>