<?xml version="1.0" encoding="UTF-8"?>
<svg width="56px" height="56px" viewBox="0 0 56 56" version="1.1" xmlns="http://www.w3.org/2000/svg" xmlns:xlink="http://www.w3.org/1999/xlink">
    <!-- Generator: Sketch 48.2 (47327) - http://www.bohemiancoding.com/sketch -->
    <title>sound full</title>
    <desc>Created with Sketch.</desc>
    <defs></defs>
    <g id="Symbols" stroke="none" stroke-width="1" fill="none" fill-rule="evenodd">
        <g id="sound-full">
            <g id="ic_sound_light_24" transform="translate(16.000000, 16.000000)">
                <g>
                    <rect id="Rectangle-20" x="0" y="0" width="24" height="24"></rect>
                    <ellipse id="Oval" stroke="#FFFFFF" stroke-width="2" cx="6" cy="19" rx="4" ry="3"></ellipse>
                    <path d="M10,18.5 L10,6" id="Line" stroke="#FFFFFF" stroke-width="2" stroke-linecap="round"></path>
                    <path d="M10,6 L22,2" id="Line" stroke="#FFFFFF" stroke-width="2" stroke-linecap="round"></path>
                    <path d="M10,10 L22,6" id="Line" stroke="#FFFFFF" stroke-width="2" stroke-linecap="round"></path>
                    <path d="M22,14.5 L22,2" id="Line" stroke="#FFFFFF" stroke-width="2" stroke-linecap="round"></path>
                    <ellipse id="Oval" stroke="#FFFFFF" stroke-width="2" cx="18" cy="15" rx="4" ry="3"></ellipse>
                </g>
            </g>
            <path d="M7,35.9379479 C8.07171247,33.4868275 8.66628173,30.7794119 8.66628173,27.9331273 C8.66628173,25.8541079 8.34906007,23.8491797 7.76037874,21.9641046 C7.55097465,21.2935509 7.30722149,20.6381628 7.03117902,20" id="Oval" stroke="#4588FF" stroke-width="2" stroke-linecap="round" transform="translate(7.833141, 27.968974) scale(-1, 1) translate(-7.833141, -27.968974) "></path>
            <path d="M25.0746564,33.0446432 C25.6724198,31.4874572 26,29.7963638 26,28.02876 C26,26.2562828 25.670611,24.5607385 25.0697059,23" id="Oval" stroke="#4588FF" stroke-width="2" stroke-linecap="round" transform="translate(19.000000, 32.514380) scale(-1, 1) translate(-19.000000, -32.514380) "></path>
        </g>
    </g>
</svg>