<?xml version="1.0" encoding="UTF-8"?>
<svg width="24px" height="24px" viewBox="0 0 24 24" version="1.1" xmlns="http://www.w3.org/2000/svg" xmlns:xlink="http://www.w3.org/1999/xlink">
    <!-- Generator: Sketch 51.2 (57519) - http://www.bohemiancoding.com/sketch -->
    <title>LSP/ic_meditation</title>
    <desc>Created with Sketch.</desc>
    <defs></defs>
    <g id="LSP/ic_meditation" stroke="none" stroke-width="1" fill="none" fill-rule="evenodd">
        <path d="M12.0312446,14.9384614 C13.2620378,14.938026 13.5080602,14.0921612 13.5695777,13.5230769 C13.6234193,13.2076923 13.6618777,13.0384615 13.7080277,12.8076923 C14.4233525,13.6692308 15.0771441,14.0615385 15.7617023,14.4 C16.2783731,14.6554541 16.8170378,14.8984248 17.053902,14.9384615 C17.469252,14.9384615 17.7230769,14.7076923 17.7230769,14.3230769 C17.7230769,13.9615385 17.5307853,13.8153846 17.307727,13.7230769 C16.9231437,13.5615385 15.7155523,13.0846154 15.1079107,12.4769231 C14.6079525,11.9153846 14.4529836,11.7548485 13.8926276,11.0384615 C13.7783065,10.8923077 13.6618777,10.7538462 13.4157444,10.7538462 C12.7257532,10.7538462 12.3796319,10.7538462 12.0308243,10.7538462 C12.0308243,11.516758 12.0308243,12.1301118 12.0307692,12.7337054 C12.0307141,12.1301118 12.0307141,11.516758 12.0307141,10.7538462 C11.6819066,10.7538462 11.3357853,10.7538462 10.6457941,10.7538462 C10.3996608,10.7538462 10.283232,10.8923077 10.1689108,11.0384615 C9.60855484,11.7548485 9.45358597,11.9153846 8.95362773,12.4769231 C8.34598617,13.0846154 7.13839473,13.5615385 6.75381146,13.7230769 C6.53075317,13.8153846 6.33846154,13.9615385 6.33846154,14.3230769 C6.33846154,14.7076923 6.59228649,14.9384615 7.00763642,14.9384615 C7.24450066,14.8984248 7.78316537,14.6554541 8.29983618,14.4 C8.98439439,14.0615385 9.63818594,13.6692308 10.3535108,12.8076923 C10.3996608,13.0384615 10.4381191,13.2076923 10.4919608,13.5230769 C10.5534941,14.0923077 10.7996274,14.9384615 12.0312446,14.9384615 Z M18.1350482,20.5211359 L18.1350482,20.5230769 L5.38649518,20.5230769 C2.41161604,20.5230769 0,18.1104807 0,15.1343924 C0,12.5132366 1.87069176,10.3291818 4.34930019,9.84551639 C4.99456895,6.22526822 8.15716707,3.47692308 11.9614148,3.47692308 C15.3203177,3.47692308 18.1790072,5.61946134 19.2464287,8.61295835 C21.9630429,9.19456673 24,11.6099772 24,14.5013378 C24,17.7754303 21.3880836,20.4392292 18.1350482,20.5211359 Z M12.0150711,10.0461538 C13.0771572,10.0461538 13.938148,9.18516298 13.938148,8.12307692 C13.938148,7.06099087 13.0771572,6.2 12.0150711,6.2 C10.9529851,6.2 10.0919942,7.06099087 10.0919942,8.12307692 C10.0919942,9.18516298 10.9529851,10.0461538 12.0150711,10.0461538 Z M12.5229035,15.3692308 C12.3075189,15.3692308 11.9793137,15.3692308 11.5382881,15.3692308 C9.4562368,15.4512821 8.41521116,15.9589744 8.41521116,16.8923077 C8.41521116,17.3025641 8.64085219,17.5564103 9.09213424,17.6538462 L11.3382881,17.6538462 C11.1434163,17.4692308 11.0459804,17.3128205 11.0459804,17.1846154 C11.0459804,17.1384615 11.0459804,16.9846154 11.0459804,16.9384615 C11.1331599,16.577261 11.361365,16.3746969 11.7305958,16.3307692 L14.0382881,16.3307692 L14.2243348,16.3966608 L14.4075189,16.4615385 C13.0946983,16.4615385 12.3588009,16.4615385 12.1998265,16.4615385 C12.0152112,16.4615385 11.6075189,16.6769231 11.6075189,17.1461538 C11.6075189,17.6153846 12.0459804,17.8 12.1998265,17.8 C12.9356531,17.8 14.7671136,17.8 14.7690573,17.8 C14.9305958,17.7846154 15.0382881,17.7230769 15.0998265,17.6538462 C15.1382881,17.6384615 15.1921342,17.6076923 15.2382881,17.5923077 C15.5229035,17.4769231 15.6767496,17.1846154 15.6767496,16.9384615 C15.5767496,15.7307692 14.1152112,15.4846154 12.5229035,15.3692308 Z" id="Combined-Shape" fill="#FFFFFF"></path>
    </g>
</svg>