<?xml version="1.0" encoding="UTF-8"?>
<svg width="24px" height="24px" viewBox="0 0 24 24" version="1.1" xmlns="http://www.w3.org/2000/svg" xmlns:xlink="http://www.w3.org/1999/xlink">
    <!-- Generator: sketchtool 48.2 (47327) - http://www.bohemiancoding.com/sketch -->
    <title>77F75251-F91E-4AAC-8D27-A7C1B9F26F8F</title>
    <desc>Created with sketchtool.</desc>
    <defs></defs>
    <g id="Symbols" stroke="none" stroke-width="1" fill="none" fill-rule="evenodd">
        <g id="ic_fullscreen_off_24">
            <g id="ic_fulscreen_on_24">
                <rect id="Rectangle" x="0" y="0" width="24" height="24"></rect>
                <path d="M8.58578644,14 L5,14 C4.44771525,14 4,13.5522847 4,13 C4,12.4477153 4.44771525,12 5,12 L11,12 C11.5522847,12 12,12.4477153 12,13 L12,19 C12,19.5522847 11.5522847,20 11,20 C10.4477153,20 10,19.5522847 10,19 L10,15.4142136 L4.70710678,20.7071068 C4.31658249,21.0976311 3.68341751,21.0976311 3.29289322,20.7071068 C2.90236893,20.3165825 2.90236893,19.6834175 3.29289322,19.2928932 L8.58578644,14 Z M15.4142136,10 L19,10 C19.5522847,10 20,10.4477153 20,11 C20,11.5522847 19.5522847,12 19,12 L13,12 C12.4477153,12 12,11.5522847 12,11 L12,5 C12,4.44771525 12.4477153,4 13,4 C13.5522847,4 14,4.44771525 14,5 L14,8.58578644 L19.2928932,3.29289322 C19.6834175,2.90236893 20.3165825,2.90236893 20.7071068,3.29289322 C21.0976311,3.68341751 21.0976311,4.31658249 20.7071068,4.70710678 L15.4142136,10 Z" id="Combined-Shape" fill="#3C3C3C" fill-rule="nonzero"></path>
            </g>
        </g>
    </g>
</svg>