<?xml version="1.0" encoding="UTF-8"?>
<svg width="24px" height="24px" viewBox="0 0 24 24" version="1.1" xmlns="http://www.w3.org/2000/svg" xmlns:xlink="http://www.w3.org/1999/xlink">
    <!-- Generator: Sketch 48.2 (47327) - http://www.bohemiancoding.com/sketch -->
    <title>ic_adjust_dark_24</title>
    <desc>Created with Sketch.</desc>
    <defs></defs>
    <g id="Symbols" stroke="none" stroke-width="1" fill="none" fill-rule="evenodd">
        <g id="ic_adjust_dark_24" fill="#3C3C3C">
            <g transform="translate(1.000000, 1.000000)" id="Combined-Shape">
                <path d="M2.12601749,17 C2.57006028,15.2747728 4.13616057,14 6,14 C7.86383943,14 9.42993972,15.2747728 9.87398251,17 L21,17 C21.5522847,17 22,17.4477153 22,18 C22,18.5522847 21.5522847,19 21,19 L9.87398251,19 C9.42993972,20.7252272 7.86383943,22 6,22 C4.13616057,22 2.57006028,20.7252272 2.12601749,19 L1,19 C0.44771525,19 6.76353751e-17,18.5522847 0,18 C-6.76353751e-17,17.4477153 0.44771525,17 1,17 L2.12601749,17 Z M6,20 C7.1045695,20 8,19.1045695 8,18 C8,16.8954305 7.1045695,16 6,16 C4.8954305,16 4,16.8954305 4,18 C4,19.1045695 4.8954305,20 6,20 Z"></path>
                <path d="M11.1260175,10 C11.5700603,8.27477279 13.1361606,7 15,7 C16.8638394,7 18.4299397,8.27477279 18.8739825,10 L21,10 C21.5522847,10 22,10.4477153 22,11 C22,11.5522847 21.5522847,12 21,12 L18.8739825,12 C18.4299397,13.7252272 16.8638394,15 15,15 C13.1361606,15 11.5700603,13.7252272 11.1260175,12 L1,12 C0.44771525,12 6.76353751e-17,11.5522847 0,11 C-6.76353751e-17,10.4477153 0.44771525,10 1,10 L11.1260175,10 Z M15,13 C16.1045695,13 17,12.1045695 17,11 C17,9.8954305 16.1045695,9 15,9 C13.8954305,9 13,9.8954305 13,11 C13,12.1045695 13.8954305,13 15,13 Z"></path>
                <path d="M2.12601749,3 C2.57006028,1.27477279 4.13616057,0 6,0 C7.86383943,0 9.42993972,1.27477279 9.87398251,3 L21,3 C21.5522847,3 22,3.44771525 22,4 C22,4.55228475 21.5522847,5 21,5 L9.87398251,5 C9.42993972,6.72522721 7.86383943,8 6,8 C4.13616057,8 2.57006028,6.72522721 2.12601749,5 L1,5 C0.44771525,5 6.76353751e-17,4.55228475 0,4 C-6.76353751e-17,3.44771525 0.44771525,3 1,3 L2.12601749,3 Z M6,6 C7.1045695,6 8,5.1045695 8,4 C8,2.8954305 7.1045695,2 6,2 C4.8954305,2 4,2.8954305 4,4 C4,5.1045695 4.8954305,6 6,6 Z"></path>
            </g>
        </g>
    </g>
</svg>