<?xml version="1.0" encoding="UTF-8"?>
<svg width="44px" height="44px" viewBox="0 0 44 44" version="1.1" xmlns="http://www.w3.org/2000/svg" xmlns:xlink="http://www.w3.org/1999/xlink">
    <!-- Generator: Sketch 48.2 (47327) - http://www.bohemiancoding.com/sketch -->
    <title>ic_oceanbeachseagulls_dark</title>
    <desc>Created with Sketch.</desc>
    <defs></defs>
    <g id="Symbols" stroke="none" stroke-width="1" fill="none" fill-rule="evenodd">
        <g id="ic_oceanbeachseagulls_dark">
            <g>
                <path d="M6,27.9386255 C7.14184365,27.3187704 8.3993744,27.0088429 9.77259225,27.0088429 C11.832419,27.0088429 13.4790869,28.7122029 14.5581778,28.8348477 C15.6372687,28.9574925 17.7928633,27.0976798 18.5960594,27.0088429 C19.3992556,26.9200059 21.3908363,28.6796573 22.7343135,28.8348477 C24.0777906,28.9900381 25.241232,27.1622054 26.5925075,27.0088429 C27.9437831,26.8554803 29.9851852,28.7465607 30.7477827,28.8348477 C31.5103803,28.9231347 33.6649884,27.1027859 34.5299957,27.0088429 C35.1066671,26.9462141 36.5966686,27.2561417 39,27.9386255" id="Line-5" stroke="#3C3C3C" stroke-width="2" stroke-linecap="round"></path>
                <path d="M6,22.0165313 C7.14184365,21.3966762 8.3993744,21.0867486 9.77259225,21.0867486 C11.832419,21.0867486 13.4790869,22.7901087 14.5581778,22.9127534 C15.6372687,23.0353982 17.7928633,21.1755856 18.5960594,21.0867486 C19.3992556,20.9979117 21.3908363,22.757563 22.7343135,22.9127534 C24.0777906,23.0679439 25.241232,21.2401112 26.5925075,21.0867486 C27.9437831,20.9333861 29.9851852,22.8244664 30.7477827,22.9127534 C31.5103803,23.0010405 33.6649884,21.1806917 34.5299957,21.0867486 C35.1066671,21.0241199 36.5966686,21.3340475 39,22.0165313" id="Line-5" stroke="#3C3C3C" stroke-width="2" stroke-linecap="round" transform="translate(22.500000, 22.000000) scale(-1, 1) translate(-22.500000, -22.000000) "></path>
                <path d="M6,33.9386255 C7.14184365,33.3187704 8.3993744,33.0088429 9.77259225,33.0088429 C11.832419,33.0088429 13.4790869,34.7122029 14.5581778,34.8348477 C15.6372687,34.9574925 17.7928633,33.0976798 18.5960594,33.0088429 C19.3992556,32.9200059 21.3908363,34.6796573 22.7343135,34.8348477 C24.0777906,34.9900381 25.241232,33.1622054 26.5925075,33.0088429 C27.9437831,32.8554803 29.9851852,34.7465607 30.7477827,34.8348477 C31.5103803,34.9231347 33.6649884,33.1027859 34.5299957,33.0088429 C35.1066671,32.9462141 36.5966686,33.2561417 39,33.9386255" id="Line-5" stroke="#3C3C3C" stroke-width="2" stroke-linecap="round" transform="translate(22.500000, 33.922094) scale(-1, 1) translate(-22.500000, -33.922094) "></path>
                <path d="M13.4123658,15.4118176 C15.2836124,12.8970416 17.552569,11.634277 20.2192357,11.6235236 C21.8235015,11.6170544 15.5934756,9.89444693 13.5467155,12.2523951 C11.5434424,9.89998317 5.44791462,11.5740367 6.04035023,11.6235236 C10.1596072,11.9676103 12.6169457,13.230375 13.4123658,15.4118176 Z" id="Path-7" fill="#3C3C3C" fill-rule="nonzero" transform="translate(13.240166, 13.205909) rotate(-16.000000) translate(-13.240166, -13.205909) "></path>
                <path d="M31.9603417,11.1421791 C33.676496,8.67187513 35.8679065,7.43134646 38.5345732,7.42059306 C40.138839,7.41412383 33.8934589,5.69591915 31.8466988,8.05386736 C29.8434257,5.7014554 23.7632521,7.37110617 24.3556877,7.42059306 C28.4749447,7.76467979 31.0098293,9.00520847 31.9603417,11.1421791 Z" id="Path-7" fill="#3C3C3C" fill-rule="nonzero" transform="translate(31.555190, 8.971017) scale(-1, 1) rotate(-15.000000) translate(-31.555190, -8.971017) "></path>
                <path d="M29.6958622,16 C30.5255009,14.8622202 31.5848922,14.2908539 32.8740361,14.2859011 C33.6495847,14.2829215 30.6303871,13.4915457 29.6409239,14.5775764 C28.6724837,13.4940956 25.7331517,14.2631083 26.0195522,14.2859011 C28.0109204,14.4443815 29.236357,15.0157478 29.6958622,16 Z" id="Path-7" fill="#3C3C3C" fill-rule="nonzero" transform="translate(29.500000, 15.000000) scale(-1, 1) translate(-29.500000, -15.000000) "></path>
            </g>
        </g>
    </g>
</svg>