<?xml version="1.0" encoding="UTF-8"?>
<svg width="36px" height="36px" viewBox="0 0 36 36" version="1.1" xmlns="http://www.w3.org/2000/svg" xmlns:xlink="http://www.w3.org/1999/xlink">
    <!-- Generator: Sketch 48.2 (47327) - http://www.bohemiancoding.com/sketch -->
    <title>ic_pro_features</title>
    <desc>Created with Sketch.</desc>
    <defs>
        <path d="M31.9764911,1.74322487 L32.2258445,1.56425156 C32.9749563,1.02657704 34.0099398,1.14587247 34.6170848,1.83987338 C35.2241755,2.53381223 35.2046705,3.57542553 34.5720253,4.24614934 L32.194229,6.76706445 L32.0450103,6.61649051 L31.9018262,6.76438887 L29.4465232,4.28824636 C28.7910244,3.62718392 28.7547695,2.57297127 29.3633048,1.86843808 C29.9724027,1.16325369 31.0208973,1.04393066 31.7728731,1.59421924 L31.9764911,1.74322487 Z" id="path-1"></path>
    </defs>
    <g id="Symbols" stroke="none" stroke-width="1" fill="none" fill-rule="evenodd">
        <g id="ic_pro_features">
            <rect id="Rectangle" x="0" y="0" width="36" height="36"></rect>
            <path d="M19.1876943,29.0237334 L18.1854104,30.0638204 L19.1990928,31.0406593 L20.2017438,30.0483151 L19.1876943,29.0237334 Z M18.9510989,10.9118758 L20.2875483,9.91141538 C23.4848446,7.51793288 27.9902717,8.01311811 30.591395,11.0438968 C33.1988231,14.0820219 33.0845203,18.6003832 30.3268123,21.5027842 L24.0441882,28.1150485 C23.9607034,28.2340601 23.8747553,28.3516413 23.7863685,28.4677388 C23.5273089,28.8080178 23.2486946,29.1329553 22.9519345,29.4409083 L19.2814031,33.2498811 L19.2221034,33.1901412 L19.1575866,33.2580432 L15.0907533,29.1489706 C14.7725879,28.8275006 14.4764144,28.4886229 14.2031859,28.1339699 L7.79676485,21.6799961 C4.94541098,18.8074775 4.76306253,14.2318762 7.37678351,11.1415616 C9.98359916,8.05941143 14.5480654,7.55977871 17.7599158,10.0050097 L18.9510989,10.9118758 Z" id="Combined-Shape" stroke="#FFFFFF" stroke-width="3"></path>
            <g id="Combined-Shape">
                <use fill="#D445FF" fill-rule="evenodd" xlink:href="#path-1"></use>
                <path stroke="#D445FF" stroke-width="0.8" d="M32.0457882,6.34148159 L31.903247,6.49260227 L32.0429907,6.62441239 L32.1858616,6.48274392 L32.0457882,6.34148159 Z M31.9784919,1.24942072 L31.9926046,1.23929139 C32.9090962,0.58148007 34.1753341,0.727430599 34.9181382,1.57649753 C35.6609226,2.42554192 35.6370579,3.69997109 34.8630073,4.52061153 L32.2013321,7.3424921 L32.0483468,7.18811743 L31.9052465,7.33592933 L29.1624878,4.56989131 C28.3598662,3.7604574 28.3154741,2.46963311 29.0605915,1.6069717 C29.7976957,0.753587692 31.0606696,0.601362088 31.9784919,1.24942072 Z"></path>
            </g>
        </g>
    </g>
</svg>