<?xml version="1.0" encoding="UTF-8"?>
<svg width="36px" height="36px" viewBox="0 0 36 36" version="1.1" xmlns="http://www.w3.org/2000/svg" xmlns:xlink="http://www.w3.org/1999/xlink">
    <!-- Generator: Sketch 48.2 (47327) - http://www.bohemiancoding.com/sketch -->
    <title>ic_pro_meditiations</title>
    <desc>Created with Sketch.</desc>
    <defs></defs>
    <g id="Symbols" stroke="none" stroke-width="1" fill="none" fill-rule="evenodd">
        <g id="ic_pro_meditiations">
            <g id="ic_logo_dark_72">
                <g>
                    <rect id="Rectangle-20" x="0" y="0" width="36" height="36"></rect>
                    <g id="Group">
                        <path d="M23.3364036,20.3417876 L22.6314984,24.2495088 C22.3406787,25.8617005 20.9374174,27.0344788 19.2992054,27.0344788 L17.0524308,27.0344788 C15.4419442,27.0344788 14.0542954,25.9001487 13.7339982,24.3218341 L12.9315283,20.3675388 C12.9058553,20.3977637 12.8801706,20.4279122 12.8544759,20.457981 C12.4520336,20.9289337 12.0592817,21.3657687 11.6787705,21.762328 C11.0899112,22.3760226 10.5379605,22.8859913 10.0169751,23.2824464 C9.83041621,23.4244124 9.62940214,23.5665815 9.41412896,23.7095423 C8.71253433,24.1754645 7.85928001,24.6505417 6.88123329,25.1348419 C5.99554404,25.5734094 5.05418582,25.996663 4.11379338,26.3909253 C3.78530095,26.5286467 3.47988345,26.6531267 3.20490886,26.7624461 C3.0375611,26.8289772 2.9157566,26.8763453 2.84693364,26.902587 C1.83796968,27.2872989 0.700132885,26.801797 0.305504038,25.8181883 C-0.0891248096,24.8345796 0.408892204,23.7253366 1.41785617,23.3406247 C1.42889536,23.3364156 1.45401979,23.3267435 1.49227576,23.3118663 C1.55838813,23.2861561 1.63574844,23.2557478 1.72339987,23.2209009 C1.97622443,23.1203874 2.25892596,23.0051659 2.5637925,22.8773497 C3.43299711,22.5129331 4.30123594,22.1225555 5.10450393,21.7248006 C5.94541685,21.308405 6.66157945,20.9096581 7.20533077,20.5485581 C7.35328607,20.4503025 7.48619869,20.3562988 7.60288306,20.2675053 C7.94117212,20.0100769 8.35288984,19.6296749 8.813594,19.1495404 C9.13914775,18.8102564 9.48315211,18.4276405 9.84008944,18.0099394 C10.4057406,17.3479938 10.9743166,16.6333774 11.5152886,15.9181635 C11.7048863,15.6674981 11.8771633,15.4350926 12.0285295,15.2272676 C12.0809956,15.1552319 12.1269291,15.091659 12.1658866,15.037334 C12.1884222,15.0059087 12.2031121,14.9852784 12.2095149,14.9762259 C12.6498836,14.3536229 13.4012672,14.0646268 14.1199282,14.1708162 C14.2229816,14.156473 14.3269589,14.149264 14.4311172,14.149264 L21.7524382,14.149264 C21.8500807,14.149264 21.9462753,14.1554634 22.0406498,14.1674901 C22.711852,14.0749518 23.4122634,14.3365891 23.848783,14.9114423 C23.8561236,14.9211092 23.8723495,14.9423604 23.8969663,14.9744146 C23.9392151,15.029428 23.9888773,15.0936968 24.0454565,15.1664375 C24.2083818,15.3759016 24.3931102,15.6099778 24.5956347,15.8623652 C25.1735527,16.5825704 25.7758509,17.302251 26.3689181,17.9696772 C26.6581383,18.29516 26.9382055,18.6002043 27.206428,18.880986 C27.7820653,19.4835772 28.2877823,19.9578968 28.6877498,20.2674705 C28.802471,20.3562644 28.9331475,20.4502686 29.0786137,20.5485248 C29.613217,20.9096266 30.3173309,21.3083756 31.1440964,21.7247733 C31.9338503,22.1225302 32.787482,22.5129098 33.6420632,22.8773283 C33.9418007,23.0051451 34.219746,23.1203673 34.4683171,23.2208813 C34.5544939,23.2557283 34.6305527,23.2861368 34.6955528,23.3118471 C34.7331652,23.3267244 34.7578669,23.3363965 34.7687204,23.3406057 C35.7607096,23.7253195 36.2503481,24.8345682 35.8623584,25.818182 C35.4743688,26.8017958 34.3556748,27.2873002 33.3636856,26.9025864 C33.2960205,26.8763445 33.1762652,26.8289762 33.0117329,26.7624447 C32.7413844,26.6531247 32.4411052,26.5286441 32.1181393,26.3909219 C31.193568,25.9966577 30.2680471,25.5734019 29.3972586,25.1348321 C28.4356664,24.6505294 27.5967671,24.1754498 26.9069761,23.7095252 C26.6953246,23.5665636 26.4976924,23.4243938 26.3142721,23.282427 C25.7379445,22.8363511 25.1027716,22.2406128 24.4059765,21.5111909 C24.1041997,21.1952836 23.7932494,20.856602 23.4747446,20.4981629 C23.4286377,20.4462751 23.3825204,20.3941441 23.3364036,20.3417876 Z M15.4719632,15.9812196 C15.3640563,15.9812196 15.2564209,15.992031 15.1506696,16.0134917 C14.276279,16.1909373 13.7112935,17.0436189 13.888739,17.9180095 L14.97307,23.2612192 C15.2022907,24.39074 16.1953615,25.2025233 17.3479063,25.2025233 L18.9558105,25.2025233 C20.1281968,25.2025233 21.1324408,24.3632245 21.3405659,23.2094595 L22.3013034,17.883503 C22.3183755,17.7888616 22.3269628,17.6928848 22.3269628,17.5967159 C22.3269628,16.7045019 21.6036804,15.9812196 20.7114664,15.9812196 L15.4719632,15.9812196 Z" id="Combined-Shape" fill="#FFFFFF" fill-rule="nonzero"></path>
                        <ellipse id="Oval-13" stroke="#FFFFFF" stroke-width="2" cx="18.0827932" cy="6.01119301" rx="4.97086024" ry="4.87746637"></ellipse>
                        <path d="M27.8680152,35.3443677 C27.5096978,35.6595274 27.0396356,35.8506591 26.5249321,35.8506591 L18.881856,35.8506591 C17.7582338,35.8506591 16.8473581,34.9397833 16.8473581,33.8161611 C16.8473581,32.6925389 17.7582338,31.7816632 18.881856,31.7816632 L25.8182442,31.7816632 C25.440395,31.4977768 24.9706877,31.3295504 24.461689,31.3295504 L17.2707236,31.3295504 C16.0222545,31.3295504 15.0101703,32.3416345 15.0101703,33.5901036 C15.0101703,34.3295869 15.3652433,34.9861384 15.9141969,35.3985655 L9.08740138,35.3985655 C7.84068301,35.3985655 6.83001808,34.3879006 6.83001808,33.1411822 L6.83001203,32.245262 C6.83001203,31.3321609 7.38009326,30.5089846 8.22371939,30.1596302 C11.0712897,28.9804215 14.3959223,28.3908172 18.1976174,28.3908172 C22.0341748,28.3908172 25.3848801,29.0484721 28.2497334,30.3637818 L28.2497258,30.3637982 C29.0513896,30.7318576 29.5652167,31.5331601 29.5652167,32.4152783 L29.5652167,33.2158243 C29.5652167,34.2544358 28.8398129,35.1236202 27.8680152,35.3443677 Z" id="Combined-Shape" fill="#FFFFFF"></path>
                    </g>
                </g>
            </g>
            <circle id="Oval" fill="#4588FF" cx="35" cy="1" r="1"></circle>
            <circle id="Oval" fill="#4588FF" cx="29.5" cy="2.5" r="2.5"></circle>
        </g>
    </g>
</svg>