<?xml version="1.0" encoding="UTF-8"?>
<svg width="44px" height="44px" viewBox="0 0 44 44" version="1.1" xmlns="http://www.w3.org/2000/svg" xmlns:xlink="http://www.w3.org/1999/xlink">
    <!-- Generator: Sketch 48.2 (47327) - http://www.bohemiancoding.com/sketch -->
    <title>ic_rainheavy_dark</title>
    <desc>Created with Sketch.</desc>
    <defs></defs>
    <g id="Symbols" stroke="none" stroke-width="1" fill="none" fill-rule="evenodd" stroke-linecap="round">
        <g id="ic_rainheavy_dark" stroke="#3C3C3C" stroke-width="2">
            <g>
                <path d="M12.5039969,10.0173011 C14.1169364,7.59562535 16.8721291,6 20,6 C23.5905604,6 26.690031,8.10260524 28.1343095,11.1437134 C28.5746608,11.0495566 29.0315431,11 29.5,11 C33.0898509,11 36,13.9101491 36,17.5 C36,20.8138642 33.5201133,23.5485198 30.3148945,23.9494123 C30.2158877,23.9822332 30.1100187,24 30,24 L13,24 C9.13400668,23.9999999 6,20.8659932 6,17 C6,13.3007673 8.86946571,10.2717343 12.5039969,10.0173011 Z" id="Combined-Shape"></path>
                <g id="Group-4" transform="translate(10.000000, 31.000000)">
                    <path d="M23.6776695,0 L30.7487373,7.07106781" id="Line-6"></path>
                    <path d="M16.0208153,0 L23.0918831,7.07106781" id="Line-6"></path>
                    <path d="M7.65685425,0 L14.7279221,7.07106781" id="Line-6"></path>
                    <path d="M0,0 L7.07106781,7.07106781" id="Line-6"></path>
                </g>
            </g>
        </g>
    </g>
</svg>