<?xml version="1.0" encoding="UTF-8"?>
<svg width="44px" height="44px" viewBox="0 0 44 44" version="1.1" xmlns="http://www.w3.org/2000/svg" xmlns:xlink="http://www.w3.org/1999/xlink">
    <!-- Generator: Sketch 48.2 (47327) - http://www.bohemiancoding.com/sketch -->
    <title>ic_wind_grey</title>
    <desc>Created with Sketch.</desc>
    <defs></defs>
    <g id="Symbols" stroke="none" stroke-width="1" fill="none" fill-rule="evenodd" opacity="0.54">
        <g id="ic_wind_grey">
            <g>
                <rect id="Rectangle-8" fill="#8A8A8A" x="6" y="16" width="15" height="2" rx="1"></rect>
                <rect id="Rectangle-8" fill="#8A8A8A" x="6" y="21" width="27" height="2" rx="1"></rect>
                <rect id="Rectangle-8" fill="#8A8A8A" x="6" y="26" width="25" height="2" rx="1"></rect>
                <path d="M19,17 C21.7614237,17 24,14.7614237 24,12 C24,9.23857625 21.7614237,7 19,7 C16.2385763,7 14,9.23857625 14,12" id="Oval-11" stroke="#8A8A8A" stroke-width="2" stroke-linecap="round"></path>
                <path d="M32,22 C34.7614237,22 37,19.7614237 37,17 C37,14.2385763 34.7614237,12 32,12 C29.2385763,12 27,14.2385763 27,17" id="Oval-11" stroke="#8A8A8A" stroke-width="2" stroke-linecap="round"></path>
                <path d="M25,32 C25,34.7614237 27.2385763,37 30,37 C32.7614237,37 35,34.7614237 35,32 C35,29.2385763 32.7614237,27 30,27" id="Oval-11" stroke="#8A8A8A" stroke-width="2" stroke-linecap="round"></path>
            </g>
        </g>
    </g>
</svg>