<?xml version="1.0" encoding="UTF-8"?>
<svg width="24px" height="24px" viewBox="0 0 24 24" version="1.1" xmlns="http://www.w3.org/2000/svg" xmlns:xlink="http://www.w3.org/1999/xlink">
    <!-- Generator: sketchtool 48.2 (47327) - http://www.bohemiancoding.com/sketch -->
    <title>D1AA80C9-AC66-4659-AC54-78DAA7607310</title>
    <desc>Created with sketchtool.</desc>
    <defs></defs>
    <g id="Symbols" stroke="none" stroke-width="1" fill="none" fill-rule="evenodd">
        <g id="ic_fullscreen_on_24">
            <g id="ic_fulscreen_on_24">
                <rect id="Rectangle" x="0" y="0" width="24" height="24"></rect>
                <path d="M6.41421356,19 L10,19 C10.5522847,19 11,19.4477153 11,20 C11,20.5522847 10.5522847,21 10,21 L4,21 C3.44771525,21 3,20.5522847 3,20 L3,14 C3,13.4477153 3.44771525,13 4,13 C4.55228475,13 5,13.4477153 5,14 L5,17.5857864 L9.29289322,13.2928932 C9.68341751,12.9023689 10.3165825,12.9023689 10.7071068,13.2928932 C11.0976311,13.6834175 11.0976311,14.3165825 10.7071068,14.7071068 L6.41421356,19 Z M17.5857864,5 L14,5 C13.4477153,5 13,4.55228475 13,4 C13,3.44771525 13.4477153,3 14,3 L20,3 C20.5522847,3 21,3.44771525 21,4 L21,10 C21,10.5522847 20.5522847,11 20,11 C19.4477153,11 19,10.5522847 19,10 L19,6.41421356 L14.7071068,10.7071068 C14.3165825,11.0976311 13.6834175,11.0976311 13.2928932,10.7071068 C12.9023689,10.3165825 12.9023689,9.68341751 13.2928932,9.29289322 L17.5857864,5 Z" id="Combined-Shape" fill="#3C3C3C" fill-rule="nonzero"></path>
            </g>
        </g>
    </g>
</svg>