<?xml version="1.0" encoding="UTF-8"?>
<svg width="44px" height="44px" viewBox="0 0 44 44" version="1.1" xmlns="http://www.w3.org/2000/svg" xmlns:xlink="http://www.w3.org/1999/xlink">
    <!-- Generator: Sketch 48.2 (47327) - http://www.bohemiancoding.com/sketch -->
    <title>ic_forestambience_grey</title>
    <desc>Created with Sketch.</desc>
    <defs></defs>
    <g id="Symbols" stroke="none" stroke-width="1" fill="none" fill-rule="evenodd" opacity="0.54">
        <g id="ic_forestambience_grey">
            <g>
                <path d="M17.9697911,24.9757721 C17.9897434,25.1477453 18,25.3226749 18,25.5 C18,27.9852814 15.9852814,30 13.5,30 C11.910383,30 10.5132752,29.1757703 9.71273291,27.9313673 C7.60281268,27.5590719 6,25.7167144 6,23.5 C6,21.8754964 6.86080469,20.4520445 8.15116668,19.6608917 C8.0525576,19.2905407 8,18.9014081 8,18.5 C8,16.0147186 10.0147186,14 12.5,14 C14.1245036,14 15.5479555,14.8608047 16.3391083,16.1511667 C16.7094593,16.0525576 17.0985919,16 17.5,16 C19.9852814,16 22,18.0147186 22,20.5 C22,22.826633 20.2342914,24.7408626 17.9697911,24.9757721 Z" id="Combined-Shape" stroke="#8A8A8A" stroke-width="2"></path>
                <rect id="Rectangle-4" fill="#8A8A8A" x="13" y="30" width="2" height="9" rx="1"></rect>
                <path d="M32.9688662,27.9688662 C32.7397545,29.6801655 31.2740092,31 29.5,31 C28.529493,31 27.6512449,30.6049927 27.0172577,29.9669802 C25.3127052,29.7318241 24,28.2692114 24,26.5 C24,25.0683595 24.859559,23.8374797 26.0907495,23.2952883 C26.0313846,23.0397919 26,22.7735611 26,22.5 C26,20.5670034 27.5670034,19 29.5,19 C30.8977011,19 32.1040474,19.8192876 32.6649965,21.0038205 C34.5213855,21.0899713 36,22.6223112 36,24.5 C36,26.2740092 34.6801655,27.7397545 32.9688662,27.9688662 Z" id="Combined-Shape" stroke="#8A8A8A" stroke-width="2"></path>
                <path d="M30.3208446,14.1499194 C32.6719781,13.1270411 34.315937,10.7834113 34.315937,8.05581432 C34.315937,6.95313762 34.0472621,5.91321328 33.5718058,4.99793461 C36.3982234,5.01410024 38.6844765,7.31033747 38.6844765,10.1405577 C38.6844765,12.9807975 36.3820072,15.2832667 33.5417675,15.2832667 C32.3224845,15.2832667 31.2023065,14.8589473 30.3208446,14.1499194 Z" id="Combined-Shape" stroke="#8A8A8A" stroke-width="2" transform="translate(34.502661, 10.140601) rotate(-17.000000) translate(-34.502661, -10.140601) "></path>
                <rect id="Rectangle-4" fill="#8A8A8A" x="28" y="30" width="2" height="9" rx="1"></rect>
                <circle id="Oval-8" fill="#8A8A8A" cx="7" cy="6" r="1"></circle>
                <circle id="Oval-8" fill="#8A8A8A" cx="27" cy="9" r="1"></circle>
                <circle id="Oval-8" fill="#8A8A8A" cx="14" cy="8" r="1"></circle>
                <circle id="Oval-8" fill="#8A8A8A" cx="21" cy="6" r="1"></circle>
            </g>
        </g>
    </g>
</svg>