<?xml version="1.0" encoding="UTF-8"?>
<svg width="24px" height="24px" viewBox="0 0 24 24" version="1.1" xmlns="http://www.w3.org/2000/svg" xmlns:xlink="http://www.w3.org/1999/xlink">
    <!-- Generator: Sketch 48.2 (47327) - http://www.bohemiancoding.com/sketch -->
    <title>ic_image_off_light_24</title>
    <desc>Created with Sketch.</desc>
    <defs></defs>
    <g id="Symbols" stroke="none" stroke-width="1" fill="none" fill-rule="evenodd">
        <g id="ic_image_off_light_24">
            <g>
                <rect id="Rectangle-20" x="0" y="0" width="24" height="24"></rect>
                <path d="M7.5,20 L19,20 C19.9528622,20 20.7500887,19.3336446 20.9511046,18.4415086 L17.074216,15.3399976 L15.3905028,17.0237107 L15.6401844,17.2317787 C16.0644613,17.5853428 16.1217854,18.2159075 15.7682213,18.6401844 C15.4146572,19.0644613 14.7840925,19.1217854 14.3598156,18.7682213 L11.2899773,16.2100227 L12.7100227,14.7899773 L13.8477244,15.738062 L16.2843614,13.301425 C16.6391201,12.9371333 17.2193707,12.8948717 17.624695,13.2191312 C17.6278838,13.2215766 17.6310062,13.2241118 17.6341168,13.2266686 L21,15.9193752 L21,6.5 L22.7881077,4.71189229 C22.9255096,5.11608651 23.0000368,5.54933989 23.0000368,6 L23.0000368,18 C23.0000369,18.0007043 23.0000368,18.0009831 23.0000366,18.001262 C22.9993547,20.209821 21.2087521,22 19.0000301,22 L5.5,22 L7.5,20 Z M3,17.5 L1.21191978,19.2880802 C1.07452381,18.8838939 1,18.4506499 1,18 L1,6 C1,3.790861 2.790864,2 5.0000067,2 L18.5,2 L16.5,4 L5,4 C3.8954305,4 3,4.8954305 3,6 L3,17.5 Z" id="Combined-Shape" fill="#707070" fill-rule="nonzero"></path>
                <path d="M19,8.5 C19,9.88071187 17.8807119,11 16.5,11 L19,8.5 Z" id="Combined-Shape" fill="#707070"></path>
                <path d="M22.2928932,0.292893219 L0.292893219,22.2928932 C-0.0976310729,22.6834175 -0.0976310729,23.3165825 0.292893219,23.7071068 C0.683417511,24.0976311 1.31658249,24.0976311 1.70710678,23.7071068 L23.7071068,1.70710678 C24.0976311,1.31658249 24.0976311,0.683417511 23.7071068,0.292893219 C23.3165825,-0.0976310729 22.6834175,-0.0976310729 22.2928932,0.292893219 Z" id="Line" fill="#707070" fill-rule="nonzero"></path>
            </g>
        </g>
    </g>
</svg>