<?xml version="1.0" encoding="UTF-8"?>
<svg width="24px" height="24px" viewBox="0 0 24 24" version="1.1" xmlns="http://www.w3.org/2000/svg" xmlns:xlink="http://www.w3.org/1999/xlink">
    <!-- Generator: Sketch 48.2 (47327) - http://www.bohemiancoding.com/sketch -->
    <title>ic_lock_24</title>
    <desc>Created with Sketch.</desc>
    <defs></defs>
    <g id="Symbols" stroke="none" stroke-width="1" fill="none" fill-rule="evenodd">
        <g id="ic_lock_24">
            <g id="Group-3">
                <circle id="Oval-3" fill-opacity="0.77" fill="#D445FF" cx="12" cy="12" r="12"></circle>
                <g id="Group" transform="translate(7.000000, 5.000000)" fill="#FFFFFF">
                    <path d="M8,6 L6.73243561,6 C6.90260571,5.70582663 7,5.36428714 7,5 L7,3 C7,1.8954305 6.1045695,1 5,1 C3.8954305,1 3,1.8954305 3,3 L3,5 C3,5.36428714 3.09739429,5.70582663 3.26756439,6 L2,6 L2,3 C2,1.34314575 3.34314575,3.04359188e-16 5,0 C6.65685425,-3.04359188e-16 8,1.34314575 8,3 L8,6 Z" id="Combined-Shape"></path>
                    <path d="M4,5 L6,5 C8.209139,5 10,6.790861 10,9 C10,11.209139 8.209139,13 6,13 L4,13 C1.790861,13 2.705415e-16,11.209139 0,9 C-2.705415e-16,6.790861 1.790861,5 4,5 Z M5,10 C5.55228475,10 6,9.55228475 6,9 C6,8.44771525 5.55228475,8 5,8 C4.44771525,8 4,8.44771525 4,9 C4,9.55228475 4.44771525,10 5,10 Z" id="Combined-Shape"></path>
                </g>
            </g>
        </g>
    </g>
</svg>