<?xml version="1.0" encoding="UTF-8"?>
<svg width="44px" height="44px" viewBox="0 0 44 44" version="1.1" xmlns="http://www.w3.org/2000/svg" xmlns:xlink="http://www.w3.org/1999/xlink">
    <!-- Generator: Sketch 48.2 (47327) - http://www.bohemiancoding.com/sketch -->
    <title>ic_nightambcampfire_dark</title>
    <desc>Created with Sketch.</desc>
    <defs></defs>
    <g id="Symbols" stroke="none" stroke-width="1" fill="none" fill-rule="evenodd">
        <g id="ic_nightambcampfire_dark">
            <g>
                <rect id="Rectangle-3" fill="#3C3C3C" transform="translate(21.500000, 34.992867) rotate(-12.000000) translate(-21.500000, -34.992867) " x="7" y="33.9928671" width="29" height="2" rx="1"></rect>
                <rect id="Rectangle-3" fill="#3C3C3C" transform="translate(21.500000, 34.992867) scale(-1, 1) rotate(-12.000000) translate(-21.500000, -34.992867) " x="7" y="33.9928671" width="29" height="2" rx="1"></rect>
                <path d="M21.4809044,32 C26.1169619,32 30.1284612,29.5976709 28.9084733,24.396933 C28.0951481,20.9297744 25.6192918,17.1307967 21.4809044,13 C17.1347311,17.0714042 14.7063422,20.8703819 14.195738,24.396933 C13.4298315,29.6867597 16.8448469,32 21.4809044,32 Z" id="Oval-2" stroke="#3C3C3C" stroke-width="2"></path>
                <path d="M21.5559808,31 C23.473759,31 25.1331788,29.988493 24.6285116,27.7987086 C24.2920668,26.3388524 23.2678899,24.7392828 21.5559808,23 C19.7581178,24.7142755 18.7535765,26.313845 18.542357,27.7987086 C18.2255278,30.0260041 19.6382026,31 21.5559808,31 Z" id="Oval-2" stroke="#3C3C3C" stroke-width="2"></path>
                <path d="M30.304504,14.4001843 C32.6556375,13.377306 34.2995964,11.0336762 34.2995964,8.30607927 C34.2995964,7.20340257 34.0309216,6.16347823 33.5554652,5.24819956 C36.3818828,5.26436519 38.6681359,7.56060242 38.6681359,10.3908227 C38.6681359,13.2310624 36.3656666,15.5335317 33.5254269,15.5335317 C32.3061439,15.5335317 31.185966,15.1092123 30.304504,14.4001843 Z" id="Combined-Shape" stroke="#3C3C3C" stroke-width="2" transform="translate(34.486320, 10.390866) rotate(-17.000000) translate(-34.486320, -10.390866) "></path>
                <circle id="Oval-8" fill="#3C3C3C" cx="13" cy="9" r="1"></circle>
                <circle id="Oval-8" fill="#3C3C3C" cx="19" cy="6" r="1"></circle>
                <circle id="Oval-8" fill="#3C3C3C" cx="26" cy="8" r="1"></circle>
                <circle id="Oval-8" fill="#3C3C3C" cx="8" cy="6" r="1"></circle>
            </g>
        </g>
    </g>
</svg>