<?xml version="1.0" encoding="UTF-8"?>
<svg width="44px" height="44px" viewBox="0 0 44 44" version="1.1" xmlns="http://www.w3.org/2000/svg" xmlns:xlink="http://www.w3.org/1999/xlink">
    <!-- Generator: Sketch 48.2 (47327) - http://www.bohemiancoding.com/sketch -->
    <title>ic_oceanwaves_grey</title>
    <desc>Created with Sketch.</desc>
    <defs></defs>
    <g id="Symbols" stroke="none" stroke-width="1" fill="none" fill-rule="evenodd" opacity="0.54" stroke-linecap="round">
        <g id="ic_oceanwaves_grey" stroke="#8A8A8A" stroke-width="2">
            <g id="Line-5">
                <path d="M5,25.9386255 C6.14184365,25.3187704 7.3993744,25.0088429 8.77259225,25.0088429 C10.832419,25.0088429 12.4790869,26.7122029 13.5581778,26.8348477 C14.6372687,26.9574925 16.7928633,25.0976798 17.5960594,25.0088429 C18.3992556,24.9200059 20.3908363,26.6796573 21.7343135,26.8348477 C23.0777906,26.9900381 24.241232,25.1622054 25.5925075,25.0088429 C26.9437831,24.8554803 28.9851852,26.7465607 29.7477827,26.8348477 C30.5103803,26.9231347 32.6649884,25.1027859 33.5299957,25.0088429 C34.1066671,24.9462141 35.5966686,25.2561417 38,25.9386255"></path>
                <path d="M5,19.9386255 C6.14184365,19.3187704 7.3993744,19.0088429 8.77259225,19.0088429 C10.832419,19.0088429 12.4790869,20.7122029 13.5581778,20.8348477 C14.6372687,20.9574925 16.7928633,19.0976798 17.5960594,19.0088429 C18.3992556,18.9200059 20.3908363,20.6796573 21.7343135,20.8348477 C23.0777906,20.9900381 24.241232,19.1622054 25.5925075,19.0088429 C26.9437831,18.8554803 28.9851852,20.7465607 29.7477827,20.8348477 C30.5103803,20.9231347 32.6649884,19.1027859 33.5299957,19.0088429 C34.1066671,18.9462141 35.5966686,19.2561417 38,19.9386255" transform="translate(21.500000, 19.922094) scale(-1, 1) translate(-21.500000, -19.922094) "></path>
                <path d="M5,13.9386255 C6.14184365,13.3187704 7.3993744,13.0088429 8.77259225,13.0088429 C10.832419,13.0088429 12.4790869,14.7122029 13.5581778,14.8348477 C14.6372687,14.9574925 16.7928633,13.0976798 17.5960594,13.0088429 C18.3992556,12.9200059 20.3908363,14.6796573 21.7343135,14.8348477 C23.0777906,14.9900381 24.241232,13.1622054 25.5925075,13.0088429 C26.9437831,12.8554803 28.9851852,14.7465607 29.7477827,14.8348477 C30.5103803,14.9231347 32.6649884,13.1027859 33.5299957,13.0088429 C34.1066671,12.9462141 35.5966686,13.2561417 38,13.9386255" transform="translate(21.500000, 13.922094) scale(-1, 1) translate(-21.500000, -13.922094) "></path>
                <path d="M5,31.9386255 C6.14184365,31.3187704 7.3993744,31.0088429 8.77259225,31.0088429 C10.832419,31.0088429 12.4790869,32.7122029 13.5581778,32.8348477 C14.6372687,32.9574925 16.7928633,31.0976798 17.5960594,31.0088429 C18.3992556,30.9200059 20.3908363,32.6796573 21.7343135,32.8348477 C23.0777906,32.9900381 24.241232,31.1622054 25.5925075,31.0088429 C26.9437831,30.8554803 28.9851852,32.7465607 29.7477827,32.8348477 C30.5103803,32.9231347 32.6649884,31.1027859 33.5299957,31.0088429 C34.1066671,30.9462141 35.5966686,31.2561417 38,31.9386255" transform="translate(21.500000, 31.922094) scale(-1, 1) translate(-21.500000, -31.922094) "></path>
            </g>
        </g>
    </g>
</svg>