<?xml version="1.0" encoding="UTF-8"?>
<svg width="36px" height="36px" viewBox="0 0 36 36" version="1.1" xmlns="http://www.w3.org/2000/svg" xmlns:xlink="http://www.w3.org/1999/xlink">
    <!-- Generator: Sketch 48.2 (47327) - http://www.bohemiancoding.com/sketch -->
    <title>ic_pro_video</title>
    <desc>Created with Sketch.</desc>
    <defs></defs>
    <g id="Symbols" stroke="none" stroke-width="1" fill="none" fill-rule="evenodd">
        <g id="ic_pro_video">
            <rect id="Rectangle" x="0" y="0" width="36" height="36"></rect>
            <g id="ic_sound_light_24" transform="translate(2.000000, 2.000000)">
                <rect id="Mask" x="0" y="0" width="32" height="32"></rect>
                <path d="M6.54883869,12 L4.6071222,12 C4.57801809,12 4.5496044,11.9970439 4.522165,11.9914157 C4.45460971,11.9970985 4.38622296,12 4.31712991,12 C3.0374144,12 2,11.0046502 2,9.77682403 C2,8.70106883 2.7963526,7.80376997 3.85429807,7.59800401 C4.15796624,6.11701735 5.51724211,5 7.14813235,5 C8.57944823,5 9.80155806,5.86036242 10.2844999,7.0720437 C10.9176464,7.20680355 11.4639024,7.56313787 11.8303445,8.05189096 C9.52838793,8.3210248 7.76788598,9.63706115 6.54883869,12 Z" id="Combined-Shape" fill-opacity="0.6" fill="#D445FF"></path>
                <circle id="Oval-2" fill="#4588FF" cx="25.3333333" cy="6.66666667" r="5.33333333"></circle>
                <path d="M20.1570111,20.5760923 L15.640778,12.113718 C15.223587,11.3319986 14.5471658,10.7110763 13.7217364,10.3521294 C11.7041731,9.47477015 9.3391408,10.3582061 8.43928903,12.3253388 L2.40149591,25.524335 C2.17280628,26.0242649 2.05461752,26.5655341 2.05461752,27.1129344 C2.05461752,29.2668541 3.84547852,31.012951 6.05461752,31.012951 L19.1365026,31.012951 C19.7793084,31.012951 20.4126466,30.8619053 20.9828744,30.5726073 C21.7037329,30.2068887 22.2625356,29.6570593 22.6302145,29.012951 L5.51298835,29.012951 C4.70755238,29.012951 4.05461752,28.3866872 4.05461752,27.6141516 C4.05461752,27.4178183 4.09770828,27.223684 4.18108685,27.0443766 L10.7850929,12.8423235 C11.1131723,12.1367819 11.9754458,11.8199244 12.7110347,12.1346024 C13.0119802,12.2633441 13.2585984,12.4860472 13.4107032,12.7664225 L19.0917607,23.2383365 L20.1570111,20.5760923 Z" id="Combined-Shape" fill="#FFFFFF" fill-rule="nonzero"></path>
                <path d="M7.33333333,17 L11.3333333,17" id="Line-3" stroke="#FFFFFF" stroke-width="2" stroke-linecap="round"></path>
                <path d="M17,29 L27.4373527,29 C27.6884206,29 27.9357907,28.9470829 28.1585111,28.8457306 C28.923937,28.4974118 29.2215636,27.6723871 28.8232788,27.0029863 L24.4995044,19.73598 C24.3365574,19.4621135 24.0723599,19.2445803 23.7499625,19.1188273 C22.9619399,18.8114544 22.0382024,19.1209562 21.6867371,19.810119 L17,29 Z M14,31 L19.6677502,19.1999886 C20.5666716,17.3284731 22.9292585,16.4879787 24.9447358,17.3226918 C25.7693118,17.6641912 26.4450336,18.2549322 26.8617933,18.9986542 L30.5480111,25.5768367 C31.5666797,27.394686 30.8054582,29.6351532 28.8477753,30.5810603 C28.278137,30.8562963 27.6454537,31 27.0033125,31 L14,31 Z" id="Path-2" fill="#FFFFFF" fill-rule="nonzero"></path>
                <path d="M18,25 L22,25" id="Line-3" stroke="#FFFFFF" stroke-width="2" stroke-linecap="round"></path>
                <path d="M6,23 L10,23" id="Line-3" stroke="#FFFFFF" stroke-width="2" stroke-linecap="round"></path>
            </g>
        </g>
    </g>
</svg>