<svg xmlns="http://www.w3.org/2000/svg" width="24" height="24" viewBox="0 0 24 24">
  <g fill="none" fill-rule="evenodd">
    <rect width="24" height="24"/>
    <rect width="20" height="2" x="2" y="22" fill="#FFF" rx="1"/>
    <circle cx="2.5" cy="9.5" r="2.5" fill="#FFF"/>
    <circle cx="21.5" cy="9.5" r="2.5" fill="#FFF"/>
    <path fill="#FFF" d="M12,8 C9.790861,8 8,6.209139 8,4 C8,1.790861 9.790861,0 12,0 C14.209139,0 16,1.790861 16,4 C16,6.209139 14.209139,8 12,8 Z M12,6 C13.1045695,6 14,5.1045695 14,4 C14,2.8954305 13.1045695,2 12,2 C10.8954305,2 10,2.8954305 10,4 C10,5.1045695 10.8954305,6 12,6 Z"/>
    <path stroke="#FFF" stroke-width="2" d="M5.37652278,19.984479 L18.9316451,19.984479 C19.1043049,19.984479 19.2579674,19.8749844 19.314338,19.7117843 L21.0098362,14.8031166 C21.0098376,14.8031125 21.0098355,14.8031082 21.0098279,14.8031064 C18.6483004,15.1215697 16.9973941,15.0604899 15.9644727,14.5400491 C14.9131967,14.0103602 13.6483196,12.5200393 12.015882,9.99691918 C12.0158733,9.9969056 12.0158551,9.99690171 12.0158326,9.99691953 C10.4971021,12.4176245 9.23476305,13.9131094 8.11954967,14.5240298 C7.02038827,15.1261569 5.38778716,15.2373613 3.17745601,14.9321885 C3.17743417,14.9321855 3.17741401,14.9322008 3.17741099,14.9322226 C3.17741008,14.9322292 3.17741084,14.932236 3.17741322,14.9322422 L4.99804912,19.72342 C5.0577692,19.8805791 5.20839939,19.984479 5.37652278,19.984479 Z"/>
  </g>
</svg>
