<?xml version="1.0" encoding="UTF-8"?>
<svg width="36px" height="36px" viewBox="0 0 36 36" version="1.1" xmlns="http://www.w3.org/2000/svg" xmlns:xlink="http://www.w3.org/1999/xlink">
    <!-- Generator: Sketch 48.2 (47327) - http://www.bohemiancoding.com/sketch -->
    <title>ic_pro_bells</title>
    <desc>Created with Sketch.</desc>
    <defs></defs>
    <g id="Symbols" stroke="none" stroke-width="1" fill="none" fill-rule="evenodd">
        <g id="ic_pro_bells">
            <rect id="Rectangle" x="0" y="0" width="36" height="36"></rect>
            <path d="M18,30.5 C9.163444,30.5 2,27.2989899 2,21.5 C2,15.7010101 9.163444,14 18,14 C26.836556,14 34,15.7010101 34,21.5 C34,27.2989899 26.836556,30.5 18,30.5 Z M18,22 C25.1797017,22 31,20.6568542 31,19 C31,17.3431458 25.1797017,16 18,16 C10.8202983,16 5,17.3431458 5,19 C5,20.6568542 10.8202983,22 18,22 Z" id="Combined-Shape" fill="#FFFFFF"></path>
            <path d="M25.5339663,16.5548685 L31.6746212,10.4142136 C32.4556698,9.63316498 33.7219997,9.63316498 34.5030483,10.4142136 C35.2840969,11.1952621 35.2840969,12.4615921 34.5030483,13.2426407 L29.9361886,17.8095004 C28.9882691,17.3040554 27.4551419,16.8706786 25.5339663,16.5548685 Z" id="Combined-Shape" fill="#4588FF"></path>
            <path d="M25.5339663,16.5548685 C27.4551419,16.8706786 28.9882691,17.3040554 29.9361886,17.8095004 L26.4697164,21.2759726 C24.8793122,21.5914474 22.9545341,21.8196711 20.8348277,21.9284639 C20.8713822,21.4713095 21.0645108,21.024324 21.4142136,20.6746212 L25.5339663,16.5548685 Z" id="Combined-Shape" fill-opacity="0.6" fill="#4588FF"></path>
            <path d="M16.0777026,10.2463725 C15.2424077,10.0846851 14.3796508,10 13.4971147,10 C12.2876724,10 11.1153765,10.1590422 10,10.4573533" id="Oval-3" stroke-opacity="0.6" stroke="#D445FF" stroke-width="2" stroke-linecap="round" transform="translate(13.038851, 10.500000) rotate(-10.000000) translate(-13.038851, -10.500000) "></path>
            <path d="M20.8532388,7.8342004 C18.4217371,6.65887616 15.6939185,6 12.8122112,6 C9.62174568,6 6.61991212,6.8076295 4,8.22959903" id="Oval-3" stroke-opacity="0.6" stroke="#D445FF" stroke-width="2" stroke-linecap="round" transform="translate(12.426619, 7.114800) rotate(-10.000000) translate(-12.426619, -7.114800) "></path>
        </g>
    </g>
</svg>