<?xml version="1.0" encoding="UTF-8"?>
<svg width="44px" height="44px" viewBox="0 0 44 44" version="1.1" xmlns="http://www.w3.org/2000/svg" xmlns:xlink="http://www.w3.org/1999/xlink">
    <!-- Generator: Sketch 48.2 (47327) - http://www.bohemiancoding.com/sketch -->
    <title>ic_rainlight_dark</title>
    <desc>Created with Sketch.</desc>
    <defs></defs>
    <g id="Symbols" stroke="none" stroke-width="1" fill="none" fill-rule="evenodd" stroke-linecap="round">
        <g id="ic_rainlight_dark" stroke="#3C3C3C" stroke-width="2">
            <g>
                <path d="M12.5039969,13.0173011 C14.1169364,10.5956253 16.8721291,9 20,9 C23.5905604,9 26.690031,11.1026052 28.1343095,14.1437134 C28.5746608,14.0495566 29.0315431,14 29.5,14 C33.0898509,14 36,16.9101491 36,20.5 C36,23.8138642 33.5201133,26.5485198 30.3148945,26.9494123 C30.2158877,26.9822332 30.1100187,27 30,27 L13,27 C9.13400668,26.9999999 6,23.8659932 6,20 C6,16.3007673 8.86946571,13.2717343 12.5039969,13.0173011 Z" id="Combined-Shape"></path>
                <g id="Group-4" transform="translate(13.000000, 34.000000)">
                    <path d="M16.6776695,0 L19.5060967,2.82842712" id="Line-6"></path>
                    <path d="M9.02081528,0 L11.8492424,2.82842712" id="Line-6"></path>
                    <path d="M0.656854249,0 L3.48528137,2.82842712" id="Line-6"></path>
                </g>
            </g>
        </g>
    </g>
</svg>