<?xml version="1.0" encoding="UTF-8"?>
<svg width="44px" height="44px" viewBox="0 0 44 44" version="1.1" xmlns="http://www.w3.org/2000/svg" xmlns:xlink="http://www.w3.org/1999/xlink">
    <!-- Generator: Sketch 48.2 (47327) - http://www.bohemiancoding.com/sketch -->
    <title>ic_rainforest_dark</title>
    <desc>Created with Sketch.</desc>
    <defs></defs>
    <g id="Symbols" stroke="none" stroke-width="1" fill="none" fill-rule="evenodd">
        <g id="ic_rainforest_dark">
            <g>
                <path d="M33.9757127,24.9797132 C33.991783,25.1509804 34,25.3245306 34,25.5 C34,28.5375661 31.5375661,31 28.5,31 C26.3307688,31 24.4548483,29.7441876 23.5595944,27.9199185 C20.9700466,27.4737716 19,25.2169503 19,22.5 C19,20.3228511 20.2649966,18.441158 22.10008,17.5498305 C22.0343987,17.2099986 22,16.8590164 22,16.5 C22,13.4624339 24.4624339,11 27.5,11 C29.6771489,11 31.558842,12.2649966 32.4501695,14.10008 C32.7900014,14.0343987 33.1409836,14 33.5,14 C36.5375661,14 39,16.4624339 39,19.5 C39,22.3773018 36.7905512,24.7385593 33.9757127,24.9797132 Z" id="Combined-Shape" stroke="#3C3C3C" stroke-width="2"></path>
                <rect id="Rectangle-4" fill="#3C3C3C" x="27" y="30" width="2" height="9" rx="1"></rect>
                <path d="M13.9688662,27.9688662 C13.7397545,29.6801655 12.2740092,31 10.5,31 C9.529493,31 8.65124489,30.6049927 8.0172577,29.9669802 C6.31270516,29.7318241 5,28.2692114 5,26.5 C5,25.0683595 5.85955903,23.8374797 7.09074955,23.2952883 C7.03138459,23.0397919 7,22.7735611 7,22.5 C7,20.5670034 8.56700338,19 10.5,19 C11.8977011,19 13.1040474,19.8192876 13.6649965,21.0038205 C15.5213855,21.0899713 17,22.6223112 17,24.5 C17,26.2740092 15.6801655,27.7397545 13.9688662,27.9688662 Z" id="Combined-Shape" stroke="#3C3C3C" stroke-width="2"></path>
                <rect id="Rectangle-4" fill="#3C3C3C" x="9" y="30" width="2" height="9" rx="1"></rect>
                <g id="Group-4" transform="translate(4.000000, 6.000000)" stroke="#3C3C3C" stroke-linecap="round" stroke-width="2">
                    <path d="M17.6776695,0 L19.0918831,1.41421356" id="Line-6"></path>
                    <path d="M0.67766953,7 L2.09188309,8.41421356" id="Line-6"></path>
                    <path d="M10.0208153,0 L13.5563492,3.53553391" id="Line-6"></path>
                    <path d="M1.65685425,0 L10.8492424,9.19238816" id="Line-6"></path>
                </g>
            </g>
        </g>
    </g>
</svg>