<?xml version="1.0" encoding="UTF-8"?>
<svg width="44px" height="44px" viewBox="0 0 44 44" version="1.1" xmlns="http://www.w3.org/2000/svg" xmlns:xlink="http://www.w3.org/1999/xlink">
    <!-- Generator: Sketch 48.2 (47327) - http://www.bohemiancoding.com/sketch -->
    <title>ic_riverbirds_dark</title>
    <desc>Created with Sketch.</desc>
    <defs></defs>
    <g id="Symbols" stroke="none" stroke-width="1" fill="none" fill-rule="evenodd">
        <g id="ic_riverbirds_dark">
            <g>
                <path d="M5,27.9386255 C6.14184365,27.3187704 7.3993744,27.0088429 8.77259225,27.0088429 C10.832419,27.0088429 12.4790869,28.7122029 13.5581778,28.8348477 C14.6372687,28.9574925 16.7928633,27.0976798 17.5960594,27.0088429 C18.3992556,26.9200059 20.3908363,28.6796573 21.7343135,28.8348477 C23.0777906,28.9900381 24.241232,27.1622054 25.5925075,27.0088429 C26.9437831,26.8554803 28.9851852,28.7465607 29.7477827,28.8348477 C30.5103803,28.9231347 32.6649884,27.1027859 33.5299957,27.0088429 C34.1066671,26.9462141 35.5966686,27.2561417 38,27.9386255" id="Line-5" stroke="#3C3C3C" stroke-width="2" stroke-linecap="round"></path>
                <path d="M5,33.9386255 C6.14184365,33.3187704 7.3993744,33.0088429 8.77259225,33.0088429 C10.832419,33.0088429 12.4790869,34.7122029 13.5581778,34.8348477 C14.6372687,34.9574925 16.7928633,33.0976798 17.5960594,33.0088429 C18.3992556,32.9200059 20.3908363,34.6796573 21.7343135,34.8348477 C23.0777906,34.9900381 24.241232,33.1622054 25.5925075,33.0088429 C26.9437831,32.8554803 28.9851852,34.7465607 29.7477827,34.8348477 C30.5103803,34.9231347 32.6649884,33.1027859 33.5299957,33.0088429 C34.1066671,32.9462141 35.5966686,33.2561417 38,33.9386255" id="Line-5" stroke="#3C3C3C" stroke-width="2" stroke-linecap="round" transform="translate(21.500000, 33.922094) scale(-1, 1) translate(-21.500000, -33.922094) "></path>
                <circle id="Oval-10" stroke="#3C3C3C" stroke-width="2" stroke-linecap="round" cx="13" cy="13" r="4"></circle>
                <path d="M13,4.5 L13,6.5 M19.0104076,6.98959236 L17.5961941,8.40380592 M21.5,13 L19.5,13 M19.0104076,19.0104076 L17.5961941,17.5961941 M13,21.5 L13,19.5 M6.98959236,19.0104076 L8.40380592,17.5961941 M4.5,13 L6.5,13 M6.98959236,6.98959236 L8.40380592,8.40380592" id="Line-7" stroke="#3C3C3C" stroke-width="2" stroke-linecap="round"></path>
                <path d="M31.7399249,11.3220247 C33.6111715,8.8072488 35.8801281,7.54448413 38.5467948,7.53373074 C40.1510606,7.5272615 33.9210347,5.80465407 31.8742746,8.16260229 C29.8710015,5.81019032 23.7754737,7.48424384 24.3679093,7.53373074 C28.4871663,7.87781746 30.9445048,9.14058213 31.7399249,11.3220247 Z" id="Path-7" fill="#3C3C3C" fill-rule="nonzero" transform="translate(31.567725, 9.116116) rotate(-16.000000) translate(-31.567725, -9.116116) "></path>
                <path d="M32.9603417,21.1421791 C34.676496,18.6718751 36.8679065,17.4313465 39.5345732,17.4205931 C41.138839,17.4141238 34.8934589,15.6959191 32.8466988,18.0538674 C30.8434257,15.7014554 24.7632521,17.3711062 25.3556877,17.4205931 C29.4749447,17.7646798 32.0098293,19.0052085 32.9603417,21.1421791 Z" id="Path-7" fill="#3C3C3C" fill-rule="nonzero" transform="translate(32.555190, 18.971017) scale(-1, 1) rotate(-15.000000) translate(-32.555190, -18.971017) "></path>
            </g>
        </g>
    </g>
</svg>