<?xml version="1.0" encoding="UTF-8"?>
<svg width="24px" height="24px" viewBox="0 0 24 24" version="1.1" xmlns="http://www.w3.org/2000/svg" xmlns:xlink="http://www.w3.org/1999/xlink">
    <!-- Generator: Sketch 48.2 (47327) - http://www.bohemiancoding.com/sketch -->
    <title>ic_sound_off_light_24</title>
    <desc>Created with Sketch.</desc>
    <defs></defs>
    <g id="Symbols" stroke="none" stroke-width="1" fill="none" fill-rule="evenodd">
        <g id="ic_sound_off_light_24">
            <g>
                <rect id="Rectangle-20" x="0" y="0" width="24" height="24"></rect>
                <path d="M4.64344575,22.8565543 L6.53126327,20.9687367 C7.93470752,20.8015397 9,19.9837073 9,19 C9,18.8522538 8.9759691,18.7082493 8.93037091,18.5696291 L10.4229294,17.0770706 C10.7889689,17.6300295 11,18.2775475 11,19 C11,21.4206151 8.63092262,23 6,23 C5.5358059,23 5.07976312,22.9508333 4.64344575,22.8565543 Z M1.03053617,19.4694638 C1.01038251,19.3168054 1,19.160246 1,19 C1,16.7403425 3.06449109,15.2137603 5.47926719,15.0207328 L1.03053617,19.4694638 Z" id="Combined-Shape" fill="#707070" fill-rule="nonzero"></path>
                <path d="M13.0406894,14.4593106 L16.2609255,11.2390745 C16.8101017,11.0826371 17.3982007,11 18,11 C20.6309226,11 23,12.5793849 23,15 C23,17.4206151 20.6309226,19 18,19 C15.3690774,19 13,17.4206151 13,15 C13,14.814732 13.0138781,14.6343918 13.0406894,14.4593106 Z M18,17 C19.6568542,17 21,16.1045695 21,15 C21,13.8954305 19.6568542,13 18,13 C16.3431458,13 15,13.8954305 15,15 C15,16.1045695 16.3431458,17 18,17 Z" id="Combined-Shape" fill="#707070"></path>
                <path d="M22.9114415,2.41144151 L21.5844306,1.08443058 L21.6616278,1.0586982 C21.7187838,1.03814918 21.7783524,1.02265796 21.8397937,1.01276436 C21.8468669,1.01160767 21.85394,1.01052928 21.861012,1.00952865 C21.9064362,1.00326499 21.9528368,1 22,1 C22.0634392,1 22.1254986,1.00590732 22.1856582,1.0172019 C22.329847,1.04457636 22.4662145,1.10340965 22.5847534,1.188698 C22.7031503,1.27418329 22.8020877,1.3849482 22.8736539,1.51308108 C22.903393,1.56658186 22.9286221,1.62358856 22.9486833,1.68377223 C22.9659277,1.73550553 22.9787089,1.78765196 22.9872356,1.83979371 C22.9887006,1.84889162 22.9900429,1.8580306 22.9912607,1.86720888 C22.9983885,1.91947184 23.0012089,1.97165681 23,2.02334233 L23,2.5 L22.9114415,2.41144151 Z M15.1688612,5.33113883 L10.3162278,6.9486833 C9.79228445,7.12333107 9.22596447,6.84017108 9.0513167,6.31622777 C8.87666893,5.79228445 9.15982892,5.22596447 9.68377223,5.0513167 L18.3311388,2.16886117 L15.1688612,5.33113883 Z M21,6.5 L23,4.5 L23,14.5 C23,15.0522847 22.5522847,15.5 22,15.5 C21.4477153,15.5 21,15.0522847 21,14.5 L21,6.5 Z" id="Combined-Shape" fill="#707070"></path>
                <path d="M9.58855849,10.9114415 C9.34325828,10.8006362 9.14314606,10.5917158 9.0513167,10.3162278 C8.87666893,9.79228445 9.15982892,9.22596447 9.68377223,9.0513167 L12.3311388,8.16886117 L9.58855849,10.9114415 Z M19.6688612,7.83113883 L22.4114415,5.08855849 C22.6567417,5.19936377 22.8568539,5.40828416 22.9486833,5.68377223 C23.1233311,6.20771555 22.8401711,6.77403553 22.3162278,6.9486833 L19.6688612,7.83113883 Z" id="Combined-Shape" fill="#707070"></path>
                <path d="M11,18.5 L11,6 C11,5.44771525 10.5522847,5 10,5 C9.44771525,5 9,5.44771525 9,6 L9,18.5 C9,19.0522847 9.44771525,19.5 10,19.5 C10.5522847,19.5 11,19.0522847 11,18.5 Z" id="Line" fill="#707070"></path>
                <path d="M22.2928932,0.292893219 L0.292893219,22.2928932 C-0.0976310729,22.6834175 -0.0976310729,23.3165825 0.292893219,23.7071068 C0.683417511,24.0976311 1.31658249,24.0976311 1.70710678,23.7071068 L23.7071068,1.70710678 C24.0976311,1.31658249 24.0976311,0.683417511 23.7071068,0.292893219 C23.3165825,-0.0976310729 22.6834175,-0.0976310729 22.2928932,0.292893219 Z" id="Line" fill="#707070" fill-rule="nonzero"></path>
            </g>
        </g>
    </g>
</svg>