<?xml version="1.0" encoding="UTF-8"?>
<svg width="44px" height="44px" viewBox="0 0 44 44" version="1.1" xmlns="http://www.w3.org/2000/svg" xmlns:xlink="http://www.w3.org/1999/xlink">
    <!-- Generator: Sketch 48.2 (47327) - http://www.bohemiancoding.com/sketch -->
    <title>ic_thunderstorm_grey</title>
    <desc>Created with Sketch.</desc>
    <defs></defs>
    <g id="Symbols" stroke="none" stroke-width="1" fill="none" fill-rule="evenodd" opacity="0.54" stroke-linecap="round">
        <g id="ic_thunderstorm_grey" stroke="#8A8A8A" stroke-width="2">
            <g>
                <path d="M13,27 C9.13400668,26.9999999 6,23.8659932 6,20 C6,16.3007673 8.86946571,13.2717343 12.5039969,13.0173011 C14.1169364,10.5956253 16.8721291,9 20,9 C23.5905604,9 26.690031,11.1026052 28.1343095,14.1437134 C28.5746608,14.0495566 29.0315431,14 29.5,14 C33.0898509,14 36,16.9101491 36,20.5 C36,23.8138642 33.5201133,26.5485198 30.3148945,26.9494123 C30.2158877,26.9822332 30.1100187,27 30,27" id="Combined-Shape"></path>
                <polyline id="Path-6" transform="translate(22.021624, 29.500000) scale(-1, 1) translate(-22.021624, -29.500000) " points="18.4380018 22 26.4214747 29.9834729 17.621774 29.9834729 24.038192 37"></polyline>
            </g>
        </g>
    </g>
</svg>