<?xml version="1.0" encoding="UTF-8"?>
<svg width="34px" height="24px" viewBox="0 0 34 24" version="1.1" xmlns="http://www.w3.org/2000/svg" xmlns:xlink="http://www.w3.org/1999/xlink">
    <!-- Generator: Sketch 48.2 (47327) - http://www.bohemiancoding.com/sketch -->
    <title>logo</title>
    <desc>Created with Sketch.</desc>
    <defs>
        <linearGradient x1="7.79015218%" y1="4.08471918%" x2="137.146667%" y2="203.265984%" id="linearGradient-1">
            <stop stop-color="#4588FF" offset="0%"></stop>
            <stop stop-color="#D445FF" offset="100%"></stop>
        </linearGradient>
    </defs>
    <g id="Symbols" stroke="none" stroke-width="1" fill="none" fill-rule="evenodd">
        <g id="logo" fill="url(#linearGradient-1)">
            <path d="M21.0159549,19.9828326 L21.0916234,19.9828326 C21.6409161,19.9828326 22.0862058,19.5375429 22.0862058,18.9882502 L22.0862058,18.6136127 C22.0862058,18.2173881 21.8565884,17.8570672 21.4974423,17.6897114 L21.4974243,17.6897501 C20.2097506,17.0897164 18.7035281,16.7896996 16.9787569,16.7896996 C15.2698443,16.7896996 13.7754799,17.0586138 12.4956639,17.5964423 C12.1173566,17.7554217 11.8712767,18.12576 11.8712767,18.5361146 L11.871308,18.9635899 C11.871308,19.5265021 12.3276385,19.9828326 12.8905508,19.9828326 L15.9585672,19.9828326 C15.7084324,19.7949071 15.5466407,19.4957445 15.5466407,19.1587934 C15.5466407,18.5899191 16.0078044,18.1287554 16.5766787,18.1287554 L19.7788227,18.1287554 C20.0142002,18.1287554 20.231138,18.2077054 20.4045992,18.3405688 L17.1984871,18.3347639 C16.7344862,18.3347639 16.3509592,18.6965468 16.323908,19.1597584 C16.3230243,19.1748915 16.3225821,19.1900471 16.3225821,19.2052059 C16.3225821,19.6357378 16.6715972,19.9847529 17.1021292,19.9847529 C18.4048279,19.9847529 19.7075265,19.9847529 21.0102252,19.9847529 C21.0122025,19.9847529 21.0141124,19.9841128 21.0159549,19.9828326 Z M19.2876074,13.1220989 C19.3083277,13.1459556 19.3290481,13.1697094 19.3497639,13.1933525 C19.4928677,13.356678 19.6325773,13.5110008 19.7681653,13.6549463 C20.0812345,13.9873129 20.3666169,14.2587655 20.6255602,14.4620233 C20.7079707,14.5267116 20.7967667,14.5914923 20.8918614,14.6566338 C21.2017837,14.8689358 21.5787002,15.0854094 22.0107424,15.3060856 C22.4019866,15.5059232 22.8178221,15.6987828 23.2332309,15.8784323 C23.3783391,15.9411864 23.5132542,15.997907 23.6347214,16.0477195 C23.7086456,16.078035 23.7624515,16.0996187 23.7928533,16.1115761 C24.2385529,16.2868738 24.7411808,16.0656501 24.9155041,15.6174591 C25.0898274,15.1692681 24.8698334,14.6638306 24.4241338,14.4885329 C24.4192574,14.4866149 24.4081589,14.4822077 24.3912597,14.4754288 C24.3620552,14.4637137 24.3278821,14.4498579 24.289163,14.4339795 C24.1774803,14.3881796 24.0525998,14.3356777 23.9179281,14.277437 C23.5339657,14.1113871 23.15043,13.9335077 22.7955946,13.7522667 C22.4241298,13.562532 22.1077722,13.380839 21.8675756,13.2163003 C21.8022179,13.1715291 21.7435051,13.1286954 21.6919609,13.0882358 C21.512256,12.9471762 21.285038,12.7310489 21.0264048,12.4564738 C20.9058928,12.3285335 20.7800589,12.1895378 20.6501126,12.0412291 C20.3836482,11.7371113 20.1130363,11.4091834 19.8533785,11.0810165 C19.7623845,10.9660143 19.6793862,10.8593558 19.6061841,10.7639119 C19.5807631,10.730767 19.5584499,10.7014825 19.5394676,10.6764152 C19.5284073,10.6618095 19.521117,10.6521262 19.5178189,10.6477214 C19.321511,10.3855447 19.006419,10.2663494 18.7045959,10.3088506 C18.6615043,10.3032943 18.6175694,10.3004292 18.5729654,10.3004292 L15.2891366,10.3004292 C15.2416605,10.3004292 15.1942666,10.3037463 15.1473,10.3103463 C14.8242114,10.2616886 14.4862982,10.3933582 14.2883095,10.6772406 C14.2854328,10.6813654 14.2788326,10.6907657 14.2687074,10.7050849 C14.2512039,10.7298385 14.230566,10.758806 14.206993,10.7916296 C14.1389844,10.8863266 14.0615805,10.9922239 13.9763945,11.1064415 C13.7333364,11.4323341 13.4778759,11.7579544 13.2237295,12.0595748 C13.063358,12.2499034 12.9087972,12.4242453 12.7625263,12.5788426 C12.5555325,12.7976194 12.3705482,12.9709525 12.2185553,13.0882516 C12.1661292,13.1287111 12.1064117,13.1715445 12.0399356,13.2163155 C11.7956287,13.3808534 11.4738577,13.5625454 11.0960366,13.7522792 C10.7351292,13.9335192 10.3450305,14.1113977 9.95449793,14.2774468 C9.81752175,14.3356872 9.69050429,14.3881888 9.57691052,14.4339885 C9.53752883,14.4498667 9.50277093,14.4637225 9.47306672,14.4754375 C9.45587836,14.4822164 9.44458999,14.4866236 9.43963009,14.4885415 C8.98630378,14.6638384 8.76254533,15.1692733 8.9398516,15.6174619 C9.11715787,16.0656506 9.62838659,16.2868732 10.0817129,16.1115764 C10.112635,16.0996191 10.1673616,16.0780355 10.2425507,16.0477201 C10.3660965,15.9979079 10.5033202,15.9411876 10.6509115,15.8784338 C11.0734287,15.6987853 11.4963798,15.5059266 11.894319,15.3060901 C12.3337542,15.085415 12.7171203,14.8689425 13.032346,14.6566416 C13.129068,14.5915004 13.2193833,14.52672 13.303204,14.4620321 C13.5372821,14.2813844 13.7852729,14.0490133 14.0498467,13.7693788 C14.22081,13.5886836 14.3972729,13.3896365 14.5780898,13.1750433 C14.5896343,13.1613423 14.6011745,13.1476049 14.6127093,13.1338327 L14.9746904,14.9427949 C15.1176764,15.6573522 15.7451121,16.1716738 16.473835,16.1716738 L17.464257,16.1716738 C18.2053415,16.1716738 18.8397152,15.6401794 18.9694953,14.9105471 L19.2876074,13.1220989 Z M25.3140584,23.9991511 C25.2974774,23.9997155 25.2808253,24 25.2641067,24 L8.64705846,24 C8.54253288,24 8.4406047,23.9888792 8.34239258,23.9677561 C8.1095881,23.9890945 7.87375885,24 7.63537812,24 C3.41847523,24 -5.68434189e-14,20.5873722 -5.68434189e-14,16.3776824 C-5.68434189e-14,12.6893788 2.62413136,9.6129256 6.1102603,8.90744231 C7.11090396,3.82977378 11.5899732,0 16.9640627,0 C21.6805173,0 25.7075987,2.94981403 27.2989829,7.10414982 C31.1329363,7.95320561 34,11.3676781 34,15.4506438 C34,20.1723228 30.1657643,24 25.4359948,24 C25.3952824,24 25.3546363,23.9997164 25.3140584,23.9991511 Z M16.9271665,9.27036773 C18.408781,9.27036773 19.6098669,8.07133633 19.6098669,6.59225614 C19.6098669,5.11317595 18.408781,3.91414455 16.9271665,3.91414455 C15.445552,3.91414455 14.2444661,5.11317595 14.2444661,6.59225614 C14.2444661,8.07133633 15.445552,9.27036773 16.9271665,9.27036773 Z" id="Combined-Shape"></path>
        </g>
    </g>
</svg>