<?xml version="1.0" encoding="UTF-8"?>
<svg width="120px" height="39px" viewBox="0 0 120 39" version="1.1" xmlns="http://www.w3.org/2000/svg" xmlns:xlink="http://www.w3.org/1999/xlink">
    <!-- Generator: Sketch 48.2 (47327) - http://www.bohemiancoding.com/sketch -->
    <title>watermark</title>
    <desc>Created with Sketch.</desc>
    <defs>
        <path d="M78.2965233,38.617495 C78.2088211,38.5305584 78.1649707,38.4202175 78.1649707,38.2864689 L78.1649707,25.1858619 C78.1649707,25.0387384 78.205448,24.9217102 78.2864039,24.8347736 C78.3673598,24.7478371 78.4820455,24.7043694 78.6304646,24.7043694 L79.5816912,24.7043694 C79.8245588,24.7043694 79.9932143,24.8046793 80.0876629,25.0053022 L84.398541,33.210736 L88.7498969,25.0053022 C88.8578381,24.8046793 89.0197474,24.7043694 89.2356297,24.7043694 L90.1868563,24.7043694 C90.3352754,24.7043694 90.4499612,24.7478371 90.530917,24.8347736 C90.6118729,24.9217102 90.6523502,25.0387384 90.6523502,25.1858619 L90.6523502,38.2864689 C90.6523502,38.4202175 90.6084998,38.5305584 90.5207976,38.617495 C90.4330954,38.7044315 90.3217828,38.7478992 90.1868563,38.7478992 L89.2558685,38.7478992 C89.1209421,38.7478992 89.0130026,38.7044315 88.9320467,38.617495 C88.8510908,38.5305584 88.8106135,38.4202175 88.8106135,38.2864689 L88.8106135,28.3155628 L85.3497677,34.9561461 C85.2148412,35.2370181 84.9989622,35.377452 84.702124,35.377452 L84.0949581,35.377452 C83.8116125,35.377452 83.5957335,35.2370181 83.4473144,34.9561461 L80.0067074,28.3155628 L80.0067074,38.2864689 C80.0067074,38.4202175 79.962857,38.5305584 79.8751548,38.617495 C79.7874526,38.7044315 79.6761399,38.7478992 79.5412135,38.7478992 L78.6304646,38.7478992 C78.4955382,38.7478992 78.3842255,38.7044315 78.2965233,38.617495 Z M94.0828378,38.617495 C93.9951356,38.5305584 93.9512851,38.4202175 93.9512851,38.2864689 L93.9512851,28.776993 C93.9512851,28.6432445 93.9951356,28.5329036 94.0828378,28.445967 C94.17054,28.3590304 94.2818526,28.3155628 94.416779,28.3155628 L95.3072891,28.3155628 C95.4422155,28.3155628 95.5535282,28.3590304 95.6412303,28.445967 C95.7289325,28.5329036 95.772783,28.6432445 95.772783,28.776993 L95.772783,38.2864689 C95.772783,38.4202175 95.7289325,38.5305584 95.6412303,38.617495 C95.5535282,38.7044315 95.4422155,38.7478992 95.3072891,38.7478992 L94.416779,38.7478992 C94.2818526,38.7478992 94.17054,38.7044315 94.0828378,38.617495 Z M98.9401653,38.617495 C98.8524631,38.5305584 98.8086127,38.4202175 98.8086127,38.2864689 L98.8086127,28.776993 C98.8086127,28.6432445 98.8524631,28.5329036 98.9401653,28.445967 C99.0278675,28.3590304 99.1391801,28.3155628 99.2741066,28.3155628 L100.144378,28.3155628 C100.292797,28.3155628 100.407483,28.3556868 100.488438,28.4359359 C100.569394,28.516185 100.609872,28.6298696 100.609872,28.776993 L100.609872,29.6597292 C101.014651,29.1648595 101.483513,28.7836818 102.016473,28.5161846 C102.549432,28.2486875 103.213935,28.1149409 104.010001,28.1149409 C105.305295,28.1149409 106.310482,28.5262116 107.025592,29.3487653 C107.740702,30.171319 108.098252,31.2580099 108.098252,32.6088704 L108.098252,38.2864689 C108.098252,38.4202175 108.054401,38.5305584 107.966699,38.617495 C107.878997,38.7044315 107.767684,38.7478992 107.632758,38.7478992 L106.70177,38.7478992 C106.566843,38.7478992 106.455531,38.7044315 106.367829,38.617495 C106.280126,38.5305584 106.236276,38.4202175 106.236276,38.2864689 L106.236276,32.7292436 C106.236276,31.7662538 106.000158,31.0172731 105.527916,30.4822788 C105.055673,29.9472845 104.381051,29.6797914 103.504029,29.6797914 C102.6405,29.6797914 101.952386,29.9506282 101.439665,30.4923099 C100.926945,31.0339916 100.670588,31.7796287 100.670588,32.7292436 L100.670588,38.2864689 C100.670588,38.4202175 100.626738,38.5305584 100.539036,38.617495 C100.451333,38.7044315 100.340021,38.7478992 100.205094,38.7478992 L99.2741066,38.7478992 C99.1391801,38.7478992 99.0278675,38.7044315 98.9401653,38.617495 Z M111.69065,37.5842924 C110.982286,36.6748021 110.601125,35.5245817 110.547154,34.1335965 L110.526915,33.531731 L110.547154,32.9298654 C110.601125,31.5522551 110.985659,30.4053783 111.700769,29.4892006 C112.41588,28.5730229 113.475036,28.1149409 114.878271,28.1149409 C116.281506,28.1149409 117.374394,28.6098032 118.156967,29.5995426 L118.156967,24.9651778 C118.156967,24.8314293 118.200818,24.7210883 118.28852,24.6341518 C118.376222,24.5472152 118.487535,24.5037476 118.622461,24.5037476 L119.53321,24.5037476 C119.668137,24.5037476 119.779449,24.5472152 119.867151,24.6341518 C119.954854,24.7210883 119.998704,24.8314293 119.998704,24.9651778 L119.998704,38.2864689 C119.998704,38.4202175 119.954854,38.5305584 119.867151,38.617495 C119.779449,38.7044315 119.668137,38.7478992 119.53321,38.7478992 L118.662939,38.7478992 C118.528012,38.7478992 118.420073,38.7044315 118.339117,38.617495 C118.258161,38.5305584 118.217684,38.4202175 118.217684,38.2864689 L118.217684,37.4237949 C117.448603,38.4402841 116.335477,38.948521 114.878271,38.948521 C113.461544,38.948521 112.399014,38.4937827 111.69065,37.5842924 Z M117.38789,36.4507789 C117.860133,35.8288481 118.116489,35.0898983 118.156967,34.2339075 C118.17046,34.086784 118.177206,33.8326656 118.177206,33.4715444 C118.177206,33.0970484 118.17046,32.8362426 118.156967,32.6891192 C118.129982,31.8732529 117.870252,31.1677398 117.377771,30.5725586 C116.885289,29.9773775 116.180309,29.6797914 115.26281,29.6797914 C114.291339,29.6797914 113.582986,29.9807212 113.137729,30.5825897 C112.692472,31.1844583 112.449608,31.973563 112.40913,32.9499276 L112.388891,33.531731 C112.388891,36.0997035 113.346854,37.3836706 115.26281,37.3836706 C116.207295,37.3836706 116.915648,37.0727098 117.38789,36.4507789 Z" id="path-1"></path>
        <filter x="-16.7%" y="-34.6%" width="133.5%" height="196.9%" filterUnits="objectBoundingBox" id="filter-2">
            <feOffset dx="0" dy="2" in="SourceAlpha" result="shadowOffsetOuter1"></feOffset>
            <feGaussianBlur stdDeviation="2" in="shadowOffsetOuter1" result="shadowBlurOuter1"></feGaussianBlur>
            <feColorMatrix values="0 0 0 0 0   0 0 0 0 0   0 0 0 0 0  0 0 0 0.4 0" type="matrix" in="shadowBlurOuter1"></feColorMatrix>
        </filter>
        <path d="M17.2058322,38.6074639 C17.1113837,38.5138399 17.0641601,38.4001553 17.0641601,38.2664067 L17.0641601,28.7970552 C17.0641601,28.6499318 17.1113837,28.5329036 17.2058322,28.445967 C17.3002807,28.3590304 17.4149664,28.3155628 17.5498929,28.3155628 L19.2701964,28.3155628 C19.4051228,28.3155628 19.5198086,28.3623741 19.6142571,28.4559981 C19.7087056,28.5496221 19.7559291,28.6633067 19.7559291,28.7970552 L19.7559291,38.2664067 C19.7559291,38.4001553 19.7087056,38.5138399 19.6142571,38.6074639 C19.5198086,38.7010879 19.4051228,38.7478992 19.2701964,38.7478992 L17.5498929,38.7478992 C17.4149664,38.7478992 17.3002807,38.7010879 17.2058322,38.6074639 Z M22.5691313,38.6074639 C22.4746828,38.5138399 22.4274593,38.4001553 22.4274593,38.2664067 L22.4274593,28.7970552 C22.4274593,28.6499318 22.4746828,28.5329036 22.5691313,28.445967 C22.6635798,28.3590304 22.7782656,28.3155628 22.913192,28.3155628 L24.5120623,28.3155628 C24.6604814,28.3155628 24.7785403,28.3590304 24.8662425,28.445967 C24.9539446,28.5329036 24.9977951,28.6499318 24.9977951,28.7970552 L24.9977951,29.4791695 C25.7263978,28.5696793 26.7045999,28.1149409 27.9324305,28.1149409 C29.4301139,28.1149409 30.4757781,28.7101131 31.0694545,29.9004754 C31.3932779,29.3654811 31.8520209,28.9341485 32.4456973,28.6064645 C33.0393736,28.2787805 33.6802646,28.1149409 34.3683894,28.1149409 C35.4747862,28.1149409 36.3787798,28.4894313 37.0803973,29.2384233 C37.7820148,29.9874153 38.1328182,31.0774498 38.1328182,32.5085595 L38.1328182,38.2664067 C38.1328182,38.4001553 38.0889678,38.5138399 38.0012656,38.6074639 C37.9135634,38.7010879 37.7955046,38.7478992 37.6470855,38.7478992 L35.9672597,38.7478992 C35.8323333,38.7478992 35.7176475,38.7010879 35.623199,38.6074639 C35.5287505,38.5138399 35.481527,38.4001553 35.481527,38.2664067 L35.481527,32.669057 C35.481527,31.826441 35.3027521,31.2178941 34.9451971,30.8433981 C34.587642,30.4689021 34.1187797,30.2816569 33.538596,30.2816569 C33.0123829,30.2816569 32.5637592,30.4722458 32.1927115,30.8534292 C31.8216638,31.2346127 31.6361427,31.8398159 31.6361427,32.669057 L31.6361427,38.2664067 C31.6361427,38.4001553 31.5922923,38.5138399 31.5045901,38.6074639 C31.4168879,38.7010879 31.298829,38.7478992 31.1504099,38.7478992 L29.4503453,38.7478992 C29.3154189,38.7478992 29.2007331,38.7010879 29.1062846,38.6074639 C29.0118361,38.5138399 28.9646126,38.4001553 28.9646126,38.2664067 L28.9646126,32.669057 C28.9646126,31.8398159 28.7824646,31.2346127 28.4181632,30.8534292 C28.0538618,30.4722458 27.5883726,30.2816569 27.0216815,30.2816569 C26.4954684,30.2816569 26.0468448,30.4722458 25.675797,30.8534292 C25.3047493,31.2346127 25.1192283,31.8398159 25.1192283,32.669057 L25.1192283,38.2664067 C25.1192283,38.4001553 25.0753778,38.5138399 24.9876756,38.6074639 C24.8999735,38.7010879 24.7819146,38.7478992 24.6334955,38.7478992 L22.913192,38.7478992 C22.7782656,38.7478992 22.6635798,38.7010879 22.5691313,38.6074639 Z M43.3342065,37.5241059 L43.3342065,38.2664067 C43.3342065,38.4001553 43.2869829,38.5138399 43.1925344,38.6074639 C43.0980859,38.7010879 42.9766539,38.7478992 42.8282348,38.7478992 L41.2091257,38.7478992 C41.0741992,38.7478992 40.9595135,38.7010879 40.865065,38.6074639 C40.7706165,38.5138399 40.7233929,38.4001553 40.7233929,38.2664067 L40.7233929,24.98524 C40.7233929,24.8381166 40.7706165,24.7210883 40.865065,24.6341518 C40.9595135,24.5472152 41.0741992,24.5037476 41.2091257,24.5037476 L42.9699069,24.5037476 C43.118326,24.5037476 43.2363848,24.5472152 43.324087,24.6341518 C43.4117892,24.7210883 43.4556397,24.8381166 43.4556397,24.98524 L43.4556397,29.4390452 C44.2112277,28.5563046 45.2433995,28.1149409 46.5521859,28.1149409 C47.914943,28.1149409 48.9639803,28.5529609 49.6993294,29.4290141 C50.4346785,30.3050672 50.8225862,31.451944 50.8630641,32.8696789 C50.8765568,33.0301771 50.883303,33.250859 50.883303,33.531731 C50.883303,33.7992281 50.8765568,34.0199099 50.8630641,34.1937831 C50.8090935,35.6382677 50.4178127,36.7918318 49.68921,37.6545101 C48.9606072,38.5171883 47.914943,38.948521 46.5521859,38.948521 C45.148951,38.948521 44.0763019,38.4737207 43.3342065,37.5241059 Z M48.0903397,34.1335965 C48.1038323,33.999848 48.1105785,33.7992281 48.1105785,33.531731 C48.1105785,33.2642338 48.1038323,33.063614 48.0903397,32.9298654 C47.9958912,31.1643843 47.226822,30.2816569 45.7831091,30.2816569 C45.0410137,30.2816569 44.4743311,30.5157134 44.0830445,30.9838334 C43.6917578,31.4519534 43.4826249,32.0203763 43.4556397,32.6891192 C43.442147,32.8496175 43.4354008,33.1104233 43.4354008,33.4715444 C43.4354008,33.8192907 43.442147,34.0734092 43.4556397,34.2339075 C43.4826249,34.9427749 43.6850116,35.5446344 44.0628056,36.0395041 C44.4405996,36.5343739 45.0140284,36.781805 45.7831091,36.781805 C47.226822,36.781805 47.9958912,35.8990777 48.0903397,34.1335965 Z M54.1012825,37.7447899 C53.3861723,36.9422985 53.0286226,35.8388893 53.0286226,34.4345293 L53.0286226,28.7970552 C53.0286226,28.6499318 53.0758462,28.5329036 53.1702947,28.445967 C53.2647432,28.3590304 53.3794289,28.3155628 53.5143554,28.3155628 L55.3358532,28.3155628 C55.4707796,28.3155628 55.5854654,28.3623741 55.6799139,28.4559981 C55.7743624,28.5496221 55.821586,28.6633067 55.821586,28.7970552 L55.821586,34.3141562 C55.821586,35.9592636 56.5434316,36.781805 57.9871445,36.781805 C58.688762,36.781805 59.2453252,36.5611232 59.6568508,36.1197529 C60.0683765,35.6783826 60.2741362,35.0765231 60.2741362,34.3141562 L60.2741362,28.7970552 C60.2741362,28.6499318 60.3213597,28.5329036 60.4158082,28.445967 C60.5102567,28.3590304 60.6249425,28.3155628 60.7598689,28.3155628 L62.5611279,28.3155628 C62.709547,28.3155628 62.8276058,28.3590304 62.915308,28.445967 C63.0030102,28.5329036 63.0468606,28.6499318 63.0468606,28.7970552 L63.0468606,38.2664067 C63.0468606,38.4001553 63.0030102,38.5138399 62.915308,38.6074639 C62.8276058,38.7010879 62.709547,38.7478992 62.5611279,38.7478992 L60.8813021,38.7478992 C60.7463757,38.7478992 60.6316899,38.7010879 60.5372414,38.6074639 C60.4427929,38.5138399 60.3955694,38.4001553 60.3955694,38.2664067 L60.3955694,37.4438571 C59.653474,38.4469714 58.5336013,38.948521 57.0359178,38.948521 C55.7945946,38.948521 54.8163926,38.5472813 54.1012825,37.7447899 Z M67.1553502,38.4870908 C66.4672253,38.179469 65.9578857,37.821697 65.6273159,37.4137638 C65.2967461,37.0058307 65.1314637,36.654746 65.1314637,36.3604991 C65.1314637,36.2267505 65.1753141,36.1197533 65.2630163,36.0395041 C65.3507185,35.959255 65.4552849,35.919131 65.5767187,35.919131 L67.2363056,35.919131 C67.3442468,35.919131 67.4386939,35.9726297 67.5196497,36.0796285 C67.587113,36.1331279 67.7389029,36.2601872 67.9750242,36.46081 C68.2111455,36.6614329 68.4809943,36.8185851 68.7845788,36.9322714 C69.0881633,37.0459577 69.4221012,37.1028 69.7864026,37.1028 C70.3261083,37.1028 70.7646127,36.9991464 71.1019288,36.7918361 C71.4392449,36.5845258 71.6079004,36.2869397 71.6079004,35.8990688 C71.6079004,35.6315717 71.5303189,35.4142335 71.3751535,35.2470478 C71.219988,35.0798621 70.943393,34.9260536 70.54536,34.7856176 C70.147327,34.6451816 69.5502865,34.4880293 68.7542205,34.3141562 C67.6073457,34.0734088 66.760695,33.7056057 66.214243,33.210736 C65.6677909,32.7158663 65.3945689,32.0605081 65.3945689,31.2446418 C65.3945689,30.7096476 65.5564782,30.2047543 65.8803017,29.7299469 C66.2041252,29.2551394 66.6864799,28.8672744 67.3273805,28.5663401 C67.9682811,28.2654058 68.7339772,28.1149409 69.6244917,28.1149409 C70.5419914,28.1149409 71.3312993,28.2587185 71.9924388,28.5462779 C72.6535784,28.8338373 73.1561718,29.1782347 73.5002342,29.5794805 C73.8442967,29.9807262 74.0163253,30.3351546 74.0163253,30.6427763 C74.0163253,30.76315 73.9724749,30.8668036 73.8847727,30.9537402 C73.7970705,31.0406767 73.6925041,31.0841444 73.5710703,31.0841444 L72.0531554,31.0841444 C71.9047363,31.0841444 71.7900506,31.0306457 71.7090947,30.9236469 C71.6146462,30.8567726 71.4628562,30.733057 71.2537203,30.5524965 C71.0445843,30.3719359 70.8118397,30.2281583 70.5554794,30.1211595 C70.2991192,30.0141606 69.988793,29.960662 69.6244917,29.960662 C69.1252638,29.960662 68.7407293,30.0676592 68.4708764,30.2816569 C68.2010235,30.4956547 68.0660991,30.7765224 68.0660991,31.1242687 C68.0660991,31.3650162 68.1301882,31.565636 68.2583683,31.7261343 C68.3865484,31.8866326 68.6462779,32.0370975 69.0375646,32.1775335 C69.4288513,32.3179695 70.0157725,32.461747 70.7983458,32.6088704 C73.2270217,33.0769904 74.4413414,34.126901 74.4413414,35.7586335 C74.4413414,36.7082484 74.0264489,37.4772911 73.1966513,38.0657849 C72.3668537,38.6542786 71.2098768,38.948521 69.725686,38.948521 C68.700245,38.948521 67.843475,38.7947125 67.1553502,38.4870908 Z" id="path-3"></path>
        <filter x="-12.2%" y="-34.6%" width="124.4%" height="196.9%" filterUnits="objectBoundingBox" id="filter-4">
            <feOffset dx="0" dy="2" in="SourceAlpha" result="shadowOffsetOuter1"></feOffset>
            <feGaussianBlur stdDeviation="2" in="shadowOffsetOuter1" result="shadowBlurOuter1"></feGaussianBlur>
            <feColorMatrix values="0 0 0 0 0   0 0 0 0 0   0 0 0 0 0  0 0 0 0.4 0" type="matrix" in="shadowBlurOuter1"></feColorMatrix>
        </filter>
        <ellipse id="path-5" cx="18.3987654" cy="25.6386555" rx="1.39876543" ry="1.38655462"></ellipse>
        <filter x="-250.2%" y="-180.3%" width="600.4%" height="604.8%" filterUnits="objectBoundingBox" id="filter-6">
            <feOffset dx="0" dy="2" in="SourceAlpha" result="shadowOffsetOuter1"></feOffset>
            <feGaussianBlur stdDeviation="2" in="shadowOffsetOuter1" result="shadowBlurOuter1"></feGaussianBlur>
            <feColorMatrix values="0 0 0 0 0   0 0 0 0 0   0 0 0 0 0  0 0 0 0.4 0" type="matrix" in="shadowBlurOuter1"></feColorMatrix>
        </filter>
        <ellipse id="path-7" cx="94.8222222" cy="25.3865546" rx="1.39876543" ry="1.38655462"></ellipse>
        <filter x="-250.2%" y="-180.3%" width="600.4%" height="604.8%" filterUnits="objectBoundingBox" id="filter-8">
            <feOffset dx="0" dy="2" in="SourceAlpha" result="shadowOffsetOuter1"></feOffset>
            <feGaussianBlur stdDeviation="2" in="shadowOffsetOuter1" result="shadowBlurOuter1"></feGaussianBlur>
            <feColorMatrix values="0 0 0 0 0   0 0 0 0 0   0 0 0 0 0  0 0 0 0.4 0" type="matrix" in="shadowBlurOuter1"></feColorMatrix>
        </filter>
        <path d="M6.28977524,30.160231 C7.78243163,33.1671054 8.41329289,34.4196742 9.08654307,35.6837291 C9.52302705,36.5032457 9.87949533,37.1330216 10.1682459,37.5870097 C10.3419127,37.8600573 10.4959909,38.0778802 10.6433075,38.2509608 C10.7498218,38.3761033 10.8571312,38.4839025 10.979954,38.5795162 C11.2327804,38.7763337 11.5158502,38.9078195 11.8952381,38.9078195 C12.4273762,38.9078195 12.8487585,38.6392773 13.1340784,38.2499337 C13.2911385,38.0356115 13.399716,37.7964423 13.4874103,37.5176107 C13.6144483,37.1136828 13.7081756,36.5779365 13.7819732,35.875699 C13.9263772,34.5015896 14,32.4040941 14,29.5108336 C14,26.8506456 13.8558544,24.7274783 13.6127356,23.0844585 C13.525001,22.4915398 13.4543842,21.9961771 13.3564525,21.5945573 C13.2920976,21.3306365 13.1125738,20.6784502 13.0714286,20.564376 C12.8073278,19.8321614 12.12131,19.9294216 11.4170414,20.2040021 C10.7127728,20.4785825 10.2073278,20.7975792 10.4714286,21.5297938 C10.4962477,21.6139098 10.6665969,22.1913172 10.6911677,22.2920824 C10.7673431,22.6044793 10.8458324,23.0097859 10.9205978,23.5150575 C11.1417647,25.0097246 11.2761905,26.9897249 11.2761905,29.5108336 C11.2761905,31.238922 11.2493377,32.6651794 11.1978555,33.7979892 C10.6256648,32.7065275 9.9851373,31.4296775 8.71022476,28.8614361 C7.21756837,25.8545617 6.58670711,24.6019929 5.91345693,23.3379381 C5.47697295,22.5184214 5.12050467,21.8886456 4.83175405,21.4346574 C4.65808728,21.1616099 4.5040091,20.9437869 4.35669253,20.7707063 C4.25017821,20.6455638 4.14286878,20.5377647 4.020046,20.442151 C3.76721957,20.2453335 3.48414984,20.1138476 3.1047619,20.1138476 C2.45241093,20.1138476 2.03570677,20.4755261 1.76749072,20.95835 C1.64647686,21.1761907 1.56005428,21.4195304 1.48670255,21.7085198 C1.37450165,22.1505663 1.28536234,22.7444208 1.21353565,23.4946818 C1.07412425,24.9508943 1,27.0137963 1,29.5108336 C1,31.7783452 1.14395894,33.8121597 1.38481787,35.5848031 C1.46996703,36.2114733 1.56171345,36.762508 1.65419437,37.2344986 C1.68722627,37.4030819 1.71824287,37.5506147 1.7465126,37.6766715 C1.76451869,37.7569621 1.91971851,38.357229 1.92857143,38.3924251 C2.11887098,39.1489881 2.72164188,39.0596027 3.44932972,38.8617519 C4.17701756,38.6639011 4.71887098,38.4332345 4.52857143,37.6766715 C4.51932798,37.6379796 4.40665972,37.0670222 4.39917193,37.0336336 C4.3766604,36.933253 4.35109218,36.8116359 4.32318658,36.6692153 C4.24156036,36.2526234 4.15919964,35.7579597 4.08184879,35.1886827 C3.85842201,33.5443341 3.72380952,31.642564 3.72380952,29.5108336 C3.72380952,27.8703639 3.75666477,26.4316417 3.81834735,25.2545998 C4.3864696,26.3393311 5.02688278,27.6162034 6.28977524,30.160231 Z" id="path-9"></path>
        <filter x="-53.8%" y="-26.3%" width="207.7%" height="173.7%" filterUnits="objectBoundingBox" id="filter-10">
            <feOffset dx="0" dy="2" in="SourceAlpha" result="shadowOffsetOuter1"></feOffset>
            <feGaussianBlur stdDeviation="2" in="shadowOffsetOuter1" result="shadowBlurOuter1"></feGaussianBlur>
            <feColorMatrix values="0 0 0 0 0   0 0 0 0 0   0 0 0 0 0  0 0 0 0.4 0" type="matrix" in="shadowBlurOuter1"></feColorMatrix>
        </filter>
        <text id="text-11" font-family="Roboto-Bold, Roboto" font-size="14" font-weight="bold" letter-spacing="0.18" fill="#FFFFFF">
            <tspan x="0.396875" y="13">powered by</tspan>
        </text>
        <filter x="-9.3%" y="-31.2%" width="118.7%" height="187.5%" filterUnits="objectBoundingBox" id="filter-12">
            <feOffset dx="0" dy="2" in="SourceAlpha" result="shadowOffsetOuter1"></feOffset>
            <feGaussianBlur stdDeviation="2" in="shadowOffsetOuter1" result="shadowBlurOuter1"></feGaussianBlur>
            <feColorMatrix values="0 0 0 0 0   0 0 0 0 0   0 0 0 0 0  0 0 0 0.4 0" type="matrix" in="shadowBlurOuter1"></feColorMatrix>
        </filter>
    </defs>
    <g id="Symbols" stroke="none" stroke-width="1" fill="none" fill-rule="evenodd" opacity="0.670120018">
        <g id="watermark">
            <g id="Group">
                <g id="logo_light">
                    <g id="Mind">
                        <use fill="black" fill-opacity="1" filter="url(#filter-2)" xlink:href="#path-1"></use>
                        <use fill="#FFFFFF" fill-rule="evenodd" xlink:href="#path-1"></use>
                    </g>
                    <g id="imbus">
                        <use fill="black" fill-opacity="1" filter="url(#filter-4)" xlink:href="#path-3"></use>
                        <use fill="#FFFFFF" fill-rule="evenodd" xlink:href="#path-3"></use>
                    </g>
                    <g id="Oval-2">
                        <use fill="black" fill-opacity="1" filter="url(#filter-6)" xlink:href="#path-5"></use>
                        <use fill="#FFFFFF" fill-rule="evenodd" xlink:href="#path-5"></use>
                    </g>
                    <g id="Oval-2">
                        <use fill="black" fill-opacity="1" filter="url(#filter-8)" xlink:href="#path-7"></use>
                        <use fill="#FFFFFF" fill-rule="evenodd" xlink:href="#path-7"></use>
                    </g>
                    <g id="Path-2" fill-rule="nonzero">
                        <use fill="black" fill-opacity="1" filter="url(#filter-10)" xlink:href="#path-9"></use>
                        <use fill="#FFFFFF" fill-rule="evenodd" xlink:href="#path-9"></use>
                    </g>
                    <g id="powered-by" fill="#FFFFFF" fill-opacity="1">
                        <use filter="url(#filter-12)" xlink:href="#text-11"></use>
                        <use xlink:href="#text-11"></use>
                    </g>
                </g>
            </g>
        </g>
    </g>
</svg>