<?xml version="1.0" encoding="UTF-8"?>
<svg width="24px" height="24px" viewBox="0 0 24 24" version="1.1" xmlns="http://www.w3.org/2000/svg" xmlns:xlink="http://www.w3.org/1999/xlink">
    <!-- Generator: Sketch 51.2 (57519) - http://www.bohemiancoding.com/sketch -->
    <title>LSP/ic_sync</title>
    <desc>Created with Sketch.</desc>
    <defs></defs>
    <g id="LSP/ic_sync" stroke="none" stroke-width="1" fill="none" fill-rule="evenodd">
        <path d="M12,18.75 C15.3446261,18.75 18.1210935,16.3174192 18.6566722,13.125 L20.9303693,13.125 C20.376768,17.564592 16.5895759,21 12,21 C8.97485588,21 6.29831212,19.5074614 4.6665885,17.218605 L3,18.75 L3,13.125 L3.06963075,13.125 L5.34332775,13.125 L9.12158175,13.125 L6.34065263,15.6803407 C7.54488412,17.5283377 9.62977462,18.75 12,18.75 Z M18.6566722,10.875 L17.625,10.875 L15.375,10.875 L17.7642233,8.48583525 C16.5786274,6.54525863 14.4405761,5.25 12,5.25 C8.65537387,5.25 5.8789065,7.68258075 5.34332775,10.875 L3.06963075,10.875 C3.623232,6.435408 7.41042412,3 12,3 C15.0599764,3 17.7632771,4.5271065 19.3893454,6.8607525 L21,5.25013725 L21,10.875 L20.9303693,10.875 L18.6566722,10.875 Z" id="sync" fill="#FFFFFF" fill-rule="nonzero"></path>
    </g>
</svg>